<?xml version="1.0" encoding="UTF-8"?><svg id="Layer_1" xmlns="http://www.w3.org/2000/svg" viewBox="0 0 2299.03 706"><path d="m732.45,562.36c.65,0,1.13.65.92,1.3-1.19,3.13-3.94,5.29-8.42,5.29-6.53,0-9.66-4.7-9.66-10.64s3.24-10.85,9.88-10.85c4.75,0,7.4,2.43,8.32,5.4.22.59-.27,1.24-.92,1.24h-2.11c-.38,0-.7-.22-.86-.54-.59-1.57-1.89-2.92-4.59-2.92-4,0-5.56,3.62-5.56,7.56,0,3.73,1.4,7.61,5.72,7.61,2.65,0,3.83-1.51,4.43-2.86.16-.32.49-.54.86-.54h2.11l-.11-.05Z" style="fill:#0a0050;"/><path d="m771.65,558.15c0,5.83-3.4,10.85-10.15,10.85s-9.88-4.75-9.88-10.8,3.73-10.8,10.15-10.8c6.05,0,9.88,4.32,9.88,10.69v.05Zm-15.93,0c0,4.21,1.94,7.56,5.89,7.56,4.27,0,5.89-3.56,5.89-7.51s-1.78-7.45-5.89-7.45-5.83,3.19-5.83,7.4h-.05Z" style="fill:#0a0050;"/><path d="m790.82,567.97v-19.49c0-.38.32-.76.76-.76h3.89s.49.11.65.38c2.81,4.86,7.88,13.55,8.91,15.77-.22-2.32-.22-5.89-.22-9.29v-6.05c0-.38.32-.76.76-.76h2.21c.38,0,.76.32.76.76v19.49c0,.38-.32.76-.76.76h-3.62s-.49-.11-.65-.38c-2.54-4.43-8.05-14.15-9.13-16.47.16,2,.16,6.1.16,9.83v6.26c0,.38-.32.76-.76.76h-2.21c-.38,0-.76-.32-.76-.76v-.05Z" style="fill:#0a0050;"/><path d="m828.73,567.81v-19.22c0-.49.38-.86.86-.86h3.67c.32,0,.59.16.76.43,2.81,4.86,7.88,13.5,8.86,15.71-.22-2.32-.22-5.89-.22-9.29v-5.94c0-.49.38-.86.86-.86h1.94c.49,0,.86.38.86.86v19.22c0,.49-.38.86-.86.86h-3.4c-.32,0-.59-.16-.76-.43-2.54-4.43-7.99-14.09-9.07-16.41.16,2,.16,6.1.16,9.83v6.1c0,.49-.38.86-.86.86h-1.94c-.49,0-.86-.38-.86-.86Z" style="fill:#0a0050;"/><path d="m879.86,559.44h-8.48c-.49,0-.86.38-.86.86v4.27c0,.49.38.86.86.86h9.34c.49,0,.92.43.81.97l-.22,1.62c-.05.43-.43.7-.81.7h-13.01c-.49,0-.86-.38-.86-.86v-19.28c0-.49.38-.86.86-.86h12.8c.49,0,.86.38.86.86v1.62c0,.49-.38.86-.86.86h-8.91c-.49,0-.86.38-.86.86v3.4c0,.49.38.86.86.86h8.48c.49,0,.86.38.86.86v1.62c0,.49-.38.86-.86.86v-.11Z" style="fill:#0a0050;"/><path d="m916.9,562.36c.54,0,.86.54.7,1.03-1.13,3.24-3.89,5.56-8.53,5.56-6.53,0-9.66-4.7-9.66-10.64s3.24-10.85,9.88-10.85c4.86,0,7.56,2.59,8.42,5.67.16.49-.22.97-.7.97h-2.54c-.32,0-.59-.22-.7-.54-.59-1.62-1.89-2.92-4.59-2.92-4,0-5.56,3.62-5.56,7.56,0,3.73,1.4,7.61,5.72,7.61,2.75,0,3.89-1.57,4.48-2.97.11-.27.38-.43.7-.43h2.48l-.11-.05Z" style="fill:#0a0050;"/><path d="m940.44,551.02h-4.97c-.43,0-.76-.32-.76-.76v-1.78c0-.43.32-.76.76-.76h15.44c.43,0,.76.32.76.76v1.78c0,.43-.32.76-.76.76h-4.91c-.43,0-.76.32-.76.76v16.09c0,.43-.32.76-.76.76h-2.48c-.43,0-.76-.32-.76-.76v-16.09c0-.43-.32-.76-.76-.76h-.05Z" style="fill:#0a0050;"/><path d="m966.41,568.03v-3.73c0-.38.32-.65.65-.65h2.75c.38,0,.65.32.65.65v3.73c0,.38-.32.65-.65.65h-2.75c-.38,0-.65-.32-.65-.65Z" style="fill:#0a0050;"/><path d="m993.57,548.43v19.6c0,.38-.32.7-.7.7h-2.65c-.38,0-.7-.32-.7-.7v-19.6c0-.38.32-.7.7-.7h2.65c.38,0,.7.32.7.7Z" style="fill:#0a0050;"/><path d="m1013.87,567.92v-19.44c0-.43.32-.76.76-.76h3.83c.27,0,.54.11.65.38,2.81,4.86,7.88,13.5,8.91,15.71-.22-2.32-.22-5.89-.22-9.29v-6.05c0-.43.32-.76.76-.76h2.11c.43,0,.76.32.76.76v19.44c0,.43-.32.76-.76.76h-3.56c-.27,0-.54-.11-.65-.38-2.54-4.43-8.05-14.09-9.13-16.41.16,2,.16,6.1.16,9.83v6.21c0,.43-.32.76-.76.76h-2.16c-.43,0-.76-.32-.76-.76h.05Z" style="fill:#0a0050;"/><path d="m1051.83,567.97v-19.55c0-.38.32-.7.7-.7h3.94s.49.11.59.32c2.81,4.86,7.88,13.55,8.91,15.77-.22-2.32-.22-5.89-.22-9.29v-6.1c0-.38.32-.7.7-.7h2.27c.38,0,.7.32.7.7v19.55c0,.38-.32.7-.7.7h-3.67s-.49-.11-.59-.32c-2.48-4.43-8.05-14.15-9.13-16.47.16,2,.16,6.1.16,9.83v6.26c0,.38-.32.7-.7.7h-2.27c-.38,0-.7-.32-.7-.7Z" style="fill:#0a0050;"/><path d="m1108.63,558.15c0,5.83-3.4,10.85-10.15,10.85s-9.88-4.75-9.88-10.8,3.73-10.8,10.15-10.8c6.05,0,9.88,4.32,9.88,10.69v.05Zm-15.93,0c0,4.21,1.94,7.56,5.89,7.56,4.27,0,5.88-3.56,5.88-7.51s-1.78-7.45-5.88-7.45-5.83,3.19-5.83,7.4h-.05Z" style="fill:#0a0050;"/><path d="m1132.39,568.3l-7.02-19.71c-.16-.38.16-.81.59-.81h2.97s.49.16.59.43l3.13,9.5c.97,2.97,1.84,5.62,2.27,7.72h.05c.43-1.89,1.35-4.64,2.38-7.61l3.29-9.56s.32-.43.59-.43h2.81c.43,0,.7.43.59.81l-7.23,19.71s-.32.38-.59.38h-3.89s-.49-.16-.59-.43h.05Z" style="fill:#0a0050;"/><path d="m1163.98,564.09l-1.35,3.89c-.16.43-.54.7-.97.7h-1.73c-.7,0-1.19-.7-.97-1.35l6.48-18.9c.16-.43.54-.7.97-.7h3.51c.43,0,.81.27.97.7l6.8,18.9c.22.65-.27,1.4-.97,1.4h-2c-.43,0-.81-.27-.97-.7l-1.4-3.89c-.16-.43-.54-.7-.97-.7h-6.43c-.43,0-.81.27-.97.7v-.05Zm5.78-4c.7,0,1.19-.7.97-1.35-1.35-3.94-2.21-6.43-2.65-8.05-.43,1.73-1.35,4.59-2.48,8.05-.22.65.27,1.35.97,1.35h3.19Z" style="fill:#0a0050;"/><path d="m1197.62,551.02h-5.61s-.43-.22-.43-.43v-2.43s.22-.43.43-.43h16.09s.43.22.43.43v2.43s-.22.43-.43.43h-5.61s-.43.22-.43.43v16.74s-.22.43-.43.43h-3.13s-.43-.22-.43-.43v-16.74s-.22-.43-.43-.43Z" style="fill:#0a0050;"/><path d="m1239.89,559.44h-9.02c-.32,0-.54.27-.54.54v4.86c0,.32.27.54.54.54h9.99c.32,0,.59.27.54.65l-.32,2.21s-.27.49-.54.49h-13.55c-.32,0-.54-.27-.54-.54v-19.87c0-.32.27-.54.54-.54h13.39c.32,0,.54.27.54.54v2.21c0,.32-.27.54-.54.54h-9.5c-.32,0-.54.27-.54.54v3.94c0,.32.27.54.54.54h9.02c.32,0,.54.27.54.54v2.21c0,.32-.27.54-.54.54v.05Z" style="fill:#0a0050;"/><path d="m1259.93,567.92v-3.56c0-.43.32-.76.76-.76h2.59c.43,0,.76.32.76.76v3.56c0,.43-.32.76-.76.76h-2.59c-.43,0-.76-.32-.76-.76Z" style="fill:#0a0050;"/><path d="m1283.95,551.02h-5.08c-.38,0-.7-.32-.7-.7v-1.89c0-.38.32-.7.7-.7h15.55c.38,0,.7.32.7.7v1.89c0,.38-.32.7-.7.7h-5.08c-.38,0-.7.32-.7.7v16.2c0,.38-.32.7-.7.7h-2.59c-.38,0-.7-.32-.7-.7v-16.2c0-.38-.32-.7-.7-.7Z" style="fill:#0a0050;"/><path d="m1316.94,560.79v7.13c0,.43-.32.76-.76.76h-2.43c-.43,0-.76-.32-.76-.76v-19.44c0-.43.32-.76.76-.76h8.15c4.48,0,6.91,2.48,6.91,5.72,0,2.11-.92,3.56-2.05,4.37-.43.27-.38.86,0,1.19.86.7,1.62,2.05,1.62,4.64v.97c0,1.03,0,2.27.11,3.19.05.43-.27.86-.76.86h-2.32c-.38,0-.65-.27-.76-.59-.22-.92-.22-2.32-.22-4.05v-.32c0-2.48-.65-3.67-4.16-3.67h-2.59c-.43,0-.76.32-.76.76Zm0-4.75c0,.43.32.76.76.76h3.29c2.7,0,3.78-1.03,3.78-2.97s-1.19-2.92-3.62-2.92h-3.46c-.43,0-.76.32-.76.76v4.37Z" style="fill:#0a0050;"/><path d="m1351.88,564.03l-1.4,4.05c-.11.38-.49.59-.86.59h-2c-.65,0-1.08-.59-.86-1.19l6.59-19.11c.11-.38.49-.59.86-.59h3.73c.38,0,.7.22.86.59l6.86,19.11c.22.59-.22,1.24-.86,1.24h-2.27c-.38,0-.7-.22-.86-.59l-1.46-4.05c-.11-.38-.49-.59-.86-.59h-6.59c-.38,0-.76.27-.86.59v-.05Zm5.89-3.94c.65,0,1.08-.65.86-1.19-1.4-4.05-2.27-6.53-2.7-8.21-.49,1.78-1.4,4.7-2.54,8.21-.22.59.27,1.19.86,1.19h3.56-.05Z" style="fill:#0a0050;"/><path d="m1384,567.87v-19.33c0-.43.38-.81.81-.81h3.78c.27,0,.54.16.7.38,2.81,4.86,7.88,13.5,8.91,15.71-.22-2.32-.22-5.89-.22-9.29v-5.99c0-.43.38-.81.81-.81h2.05c.43,0,.81.38.81.81v19.33c0,.43-.38.81-.81.81h-3.51c-.27,0-.54-.16-.7-.38-2.54-4.43-7.99-14.09-9.13-16.41.16,2,.16,6.1.16,9.83v6.21c0,.43-.38.81-.81.81h-2.11c-.43,0-.81-.38-.81-.81l.05-.05Z" style="fill:#0a0050;"/><path d="m1423.64,562.63c.38,0,.7.27.81.59.65,1.78,2.16,2.65,4.54,2.65,2.7,0,3.78-1.13,3.78-2.81,0-1.84-1.03-2.7-4.81-3.56-5.45-1.3-6.97-3.24-6.97-6.1,0-3.51,2.59-5.99,7.45-5.99s6.97,2.27,7.67,4.86c.16.54-.27,1.08-.81,1.08h-2.38c-.38,0-.7-.22-.81-.59-.38-1.24-1.35-2.32-3.78-2.32-2.05,0-3.24.86-3.24,2.54s.97,2.27,4.43,3.08c6.05,1.46,7.29,3.73,7.29,6.59,0,3.67-2.75,6.32-8.21,6.32-4.75,0-7.34-2.16-8.21-5.24-.16-.54.27-1.08.81-1.08h2.43Z" style="fill:#0a0050;"/><path d="m1456.14,547.73h12.85c.38,0,.7.32.7.7v1.94c0,.38-.32.7-.7.7h-8.96c-.38,0-.7.32-.7.7v4.27c0,.38.32.7.7.7h8.32c.38,0,.7.32.7.7v1.94c0,.38-.32.7-.7.7h-8.32c-.38,0-.7.32-.7.7v7.29c0,.38-.32.7-.7.7h-2.54c-.38,0-.7-.32-.7-.7v-19.55c0-.38.32-.7.7-.7l.05-.11Z" style="fill:#0a0050;"/><path d="m1507.44,558.15c0,5.83-3.4,10.85-10.15,10.85s-9.88-4.75-9.88-10.8,3.73-10.8,10.15-10.8c6.05,0,9.88,4.32,9.88,10.69v.05Zm-15.93,0c0,4.21,1.94,7.56,5.89,7.56,4.27,0,5.89-3.56,5.89-7.51s-1.78-7.45-5.89-7.45-5.83,3.19-5.83,7.4h-.05Z" style="fill:#0a0050;"/><path d="m1530.49,560.85v7.07c0,.43-.38.81-.81.81h-2.32c-.43,0-.81-.38-.81-.81v-19.38c0-.43.38-.81.81-.81h8.1c4.48,0,6.91,2.48,6.91,5.72,0,2.05-.86,3.46-2,4.27-.43.32-.49.92-.11,1.3.86.7,1.62,2.05,1.62,4.64v.97c0,1.03,0,2.21.11,3.13.05.49-.27.92-.76.92h-2.27c-.38,0-.7-.27-.81-.65-.22-.92-.22-2.27-.22-4v-.32c0-2.48-.65-3.67-4.16-3.67h-2.59c-.43,0-.81.38-.81.81h.11Zm0-4.81c0,.43.38.81.81.81h3.24c2.7,0,3.78-1.03,3.78-2.97s-1.19-2.92-3.62-2.92h-3.4c-.43,0-.81.38-.81.81v4.27Z" style="fill:#0a0050;"/><path d="m1579.25,560.52c0-3.67,0-7.67.16-9.99h-.11c-.92,3.89-3.29,11.07-5.35,17.49-.11.43-.49.7-.92.7h-2c-.43,0-.81-.27-.92-.7-1.62-5.62-4-13.66-4.91-17.49h-.11c.16,2.43.27,6.86.27,10.47v6.75c0,.54-.43.97-.97.97h-1.73c-.54,0-.97-.43-.97-.97v-18.95c0-.54.43-.97.97-.97h4.27c.43,0,.81.27.92.7,1.78,5.67,3.83,12.53,4.43,15.39.49-2.43,2.97-9.83,4.91-15.44.16-.38.49-.65.92-.65h4.05c.54,0,.97.43.97.97v18.95c0,.54-.43.97-.97.97h-1.89c-.54,0-.97-.43-.97-.97v-7.18l-.05-.05Z" style="fill:#0a0050;"/><path d="m710.7,240.5c7.78,0,15.5,0,23.27-.05,1.24,0,1.67.54,1.67,1.73v21.6c0,1.19-.43,1.73-1.67,1.73-7.78,0-15.5-.05-23.27-.05v-24.95Z" style="fill:#0a0050;"/><path d="m710.7,269.17c7.78,0,15.55,0,23.33-.11,1.24,0,1.67.54,1.67,1.73v21.6c0,1.19-.38,1.73-1.67,1.73-7.78-.05-15.55-.05-23.33-.11v-24.89.05Z" style="fill:#0a0050;"/><path d="m710.7,211.77c7.78,0,15.55,0,23.33-.11,1.24,0,1.67.54,1.67,1.73v21.6c0,1.19-.38,1.73-1.67,1.73-7.78-.05-15.55-.05-23.33-.11v-24.89.05Z" style="fill:#0a0050;"/><path d="m850.7,154c0,7.78,0,15.55.11,23.33,0,1.24-.54,1.67-1.73,1.67h-21.6c-1.19,0-1.73-.38-1.73-1.67.05-7.78.05-15.55.11-23.33h24.89-.05Z" style="fill:#0a0050;"/><path d="m822.03,154c0,7.78,0,15.55.11,23.33,0,1.24-.54,1.67-1.73,1.67h-21.6c-1.19,0-1.73-.38-1.73-1.67.05-7.78.05-15.55.11-23.33h24.89-.05Z" style="fill:#0a0050;"/><path d="m1140.6,255.89v-36.34c0-3.4-.22-6.75-.43-10.15-.22-3.83-1.62-5.4-5.35-5.99-1.13-.22-1.4-.65-1.03-1.67,0-.11.11-.22.11-.38,1.35-4.16,1.57-4.27,5.99-3.73,4.27.49,8.42,1.24,12.53,2.59,5.4,1.78,9.99,4.75,13.61,9.18.49.59.86,1.46,1.67.32,5.08-7.07,12.26-10.37,20.57-11.55,8.91-1.3,17.82-1.08,26.51,1.46,5.62,1.62,10.42,4.48,13.98,9.18.65.81,1.08,1.13,1.89.11,4.97-6.32,11.77-9.45,19.49-10.64,8.15-1.3,16.25-1.19,24.3.76,13.93,3.35,22.25,13.61,22.35,27.97.16,21.6,0,43.25.05,64.85,0,2.05,0,4.1.11,6.1.27,4.1,1.84,7.78,4.21,11.12.76,1.03.59,1.62-.7,1.73-5.72.59-11.45,1.19-17.12,0-9.34-1.89-15.71-8.86-17.66-19.17-.49-2.65-.76-5.29-.76-7.99,0-20.9-.16-41.85.05-62.74.11-9.56-4.86-12.47-12.47-12.2-5.78.22-10.85,2.11-15.01,6.16-1.78,1.73-2.59,3.89-2.75,6.32-1.51,25-.43,50-.65,75,0,4.64,1.51,8.91,4.21,12.69.86,1.24.65,1.78-.81,1.94-6.1.65-12.2.92-18.3,0-6.21-.97-9.99-5.02-12.85-10.2-3.02-5.45-4.21-11.34-4.21-17.49v-62.2c0-1.19,0-2.43-.05-3.62-.27-3.94-2.75-7.18-6.59-7.99-7.83-1.67-14.79.16-20.73,5.56-1.94,1.73-2.81,4.05-2.81,6.7v75c0,4.43.97,8.75,2.11,13.01.27,1.08.32,2-1.08,2-7.45.05-14.9,1.08-22.14-1.73-5.24-2.05-9.18-5.29-10.21-11.12-.22-1.13-.22-2.27-.22-3.4v-39.42h.16Z" style="fill:#0a0050;"/><path d="m1406.3,260.91v29.86c0,6.05.27,12.1,1.89,17.98.22.76.49,1.62-.7,1.78-6.43.92-12.8,1.46-19.06-.81-5.18-1.89-8.86-5.67-11.72-10.26-.81-1.3-1.13-1.3-2.11-.22-7.18,7.99-15.98,12.37-26.94,12.2-6.75-.11-13.34-.81-19.65-3.4-10.26-4.27-15.39-12.31-16.79-23.06-.86-6.64-.54-13.12,2.32-19.28,3.02-6.53,8.15-10.96,14.42-14.25,7.99-4.21,16.52-7.07,25.05-9.94,4.21-1.4,8.48-2.81,12.58-4.54,6.97-2.92,9.18-7.34,8.21-15.23-1.24-9.99-6.8-14.79-17.06-15.23-9.5-.43-18.84.38-27.81,3.89-1.35.54-1.84.16-2-1.24-.54-5.35-1.51-4.27,3.73-6.75,5.78-2.7,11.93-4.16,18.25-4.81,11.07-1.08,22.14-.97,33.1,1.4,6.1,1.35,11.88,3.4,16.58,7.83,4.54,4.27,6.59,9.77,7.34,15.82.86,7.13.27,14.25.38,21.38.11,5.62,0,11.23,0,16.85Zm-32.34.11v-7.83c0-.97-.22-1.24-1.19-.76-2.11,1.03-4.27,2-6.43,2.97-5.4,2.43-10.91,4.75-15.55,8.53-5.13,4.16-8.21,9.29-7.67,16.2.43,6.05,3.62,9.99,9.5,11.34,3.29.76,6.59.76,9.83.05,6.43-1.4,10.1-5.4,10.8-11.93.65-6.16.59-12.36.7-18.52v-.05Z" style="fill:#0a0050;"/><path d="m1578.44,473.59v30.4c0,5.83.38,11.61,1.89,17.22.22.81.32,1.51-.81,1.67-5.94.86-11.93,1.3-17.82-.49-5.67-1.73-9.61-5.62-12.69-10.47-.86-1.4-1.24-1.57-2.38-.32-5.72,6.48-12.74,10.8-21.44,11.77-8.64.97-17.22.22-25.32-3.24-7.67-3.29-12.8-8.91-15.12-16.95-1.94-6.75-2.38-13.55-.7-20.41,2.21-8.91,8.1-14.85,16.04-19.01,7.99-4.21,16.52-7.07,25.05-9.93,4.1-1.35,8.26-2.7,12.26-4.32,7.18-2.97,9.72-7.07,8.64-15.66-1.24-9.88-6.91-14.58-17.28-15.06-9.45-.43-18.74.49-27.65,3.89-1.35.54-1.78.16-1.94-1.24-.54-4.81-.59-4.81,3.83-6.75,7.18-3.13,14.69-4.75,22.46-5.13,10.15-.49,20.25-.32,30.24,2.16,2.16.54,4.27,1.24,6.37,2.05,9.61,3.78,14.69,10.96,16.04,21.06.32,2.32.43,4.7.43,7.07v31.59l-.11.11Zm-32.29.43v-8.21c0-1.24-.27-1.67-1.51-1.03-1.67.86-3.46,1.67-5.18,2.43-5.78,2.54-11.61,4.97-16.58,9.02-5.89,4.81-8.86,10.74-7.24,18.47.97,4.7,3.78,7.72,8.42,8.91,3.13.81,6.26.86,9.45.49,6.43-.81,11.18-5.29,11.93-11.77.7-6.1.76-12.2.7-18.3Z" style="fill:#0a0050;"/><path d="m1125.86,473.7v31.37c0,5.45.49,10.8,1.89,16.09.22.86.38,1.62-.86,1.78-5.45.76-10.91,1.19-16.36-.11-6.37-1.51-10.74-5.62-14.15-10.96-.81-1.3-1.19-1.46-2.27-.27-7.29,8.15-16.25,12.42-27.32,12.15-7.51-.16-14.74-1.03-21.49-4.54-9.45-4.91-13.82-13.07-14.42-23.38-.22-4.43-.59-8.91.65-13.34,2.43-8.69,8.15-14.52,15.93-18.63,8.32-4.37,17.22-7.34,26.13-10.31,3.73-1.24,7.51-2.43,11.18-4,6.86-2.92,9.13-6.26,8.86-13.71-.22-5.99-2-11.34-7.67-14.52-3.19-1.78-6.7-2.32-10.31-2.48-9.34-.43-18.47.54-27.21,3.94-1.3.49-1.67,0-1.84-1.19q-.65-4.86,3.94-6.86c7.13-3.08,14.58-4.7,22.25-5.08,10.2-.54,20.41-.38,30.4,2.16,4.97,1.24,9.72,3.08,13.77,6.37,5.35,4.32,7.56,10.26,8.53,16.79.49,3.24.38,6.48.38,9.72v28.99Zm-32.29.38v-8.42c0-1.24-.38-1.4-1.46-.86-1.73.86-3.46,1.67-5.18,2.43-5.78,2.54-11.61,4.97-16.58,9.02-5.13,4.16-8.21,9.29-7.67,16.2.43,6.16,3.67,10.1,9.66,11.45,3.29.7,6.59.76,9.88,0,6.1-1.3,9.93-5.45,10.64-11.72.7-5.99.76-12.09.7-18.14v.05Z" style="fill:#0a0050;"/><path d="m1178.99,457.77c0,9.61.16,19.28,0,28.89-.22,8.69-2.27,16.95-7.51,24.08-5.4,7.34-12.8,11.34-21.71,12.58-1.62.22-3.29.27-4.97.43-1.67.22-2.7-.38-3.02-2.11-.05-.32-.22-.59-.27-.92-.65-1.98-.05-3.33,1.78-4.05,2.65-1.03,3.35-3.35,3.73-5.78.11-.65.05-1.3.05-1.89v-81.32c0-1.87-.9-2.81-2.7-2.81h-10.53c-1.67,0-2.43-.49-2.43-2.27.11-3.56.05-7.13,0-10.69,0-1.46.54-2.05,2.05-2,3.89.05,7.78-.05,11.66.05,1.84.05,2.38-.54,2.43-2.38.16-10.85.7-21.65,2.54-32.34,1.78-10.31,6.16-19.28,13.34-26.78,7.29-7.61,16.14-11.99,26.78-12.8,4.37-.32,8.64.11,12.96.38,1.3.11,1.62.65,1.4,1.84-.54,2.86-1.08,5.78-1.51,8.64-.22,1.4-1.13,1.3-2.11,1.19-6.53-.65-12.04,1.35-16.58,6.1-3.62,3.83-4.7,8.69-5.02,13.71-.81,13.5-.16,27.05-.38,40.55,0,1.4.49,1.89,1.89,1.89h17.98c2.54,0,2.59.05,2.65,2.54,0,3.4-.05,6.75,0,10.15,0,1.78-.65,2.32-2.38,2.32-5.94-.05-11.88,0-17.76-.05-1.84,0-2.43.59-2.38,2.43.05,10.15,0,20.3,0,30.4Z" style="fill:#0a0050;"/><path d="m1077.05,197.14c6.86-.05,13.61.49,20.25,2.21,11.28,2.97,17.82,10.74,19.06,22.41.49,4.48.22,8.91.32,13.39,0,1.03-.27,1.73-1.4,1.89-4.81.86-9.61,1.3-14.47.54-9.56-1.57-15.33-8.21-15.71-17.82-.22-5.24-3.24-8.48-8.53-9.07-4.32-.54-8.53-.22-12.63,1.13-7.18,2.38-7.88,9.23-5.72,13.93,2,4.37,5.67,7.18,9.61,9.61,7.34,4.48,15.06,8.32,22.62,12.47,6.91,3.83,14.04,7.29,20.09,12.53,3.29,2.86,6.53,5.94,7.29,10.26,1.78,9.56,1.51,19.01-4.64,27.21-3.83,5.13-9.07,8.42-15.06,10.37-17.12,5.56-34.07,5.51-50.86-1.35-1.94-.81-3.89-1.57-5.89-2.32-1.08-.38-1.46-.97-1.3-2.16q.7-4.64,5.24-3.24c5.51,1.67,11.18,2.59,16.9,2.81,3.51.16,6.97.59,10.47.22,4.86-.54,8.37-2.97,10.58-7.18,2.38-4.54,3.73-9.34,2.92-14.52-.54-3.46-2.59-5.72-5.51-7.4-5.45-3.08-10.91-6.05-16.41-9.07-4.48-2.43-9.02-4.75-13.44-7.34-7.61-4.48-14.04-10.2-17.66-18.47-2.16-4.91-2.97-10.04-2.38-15.33.7-6.1,4.16-10.64,8.86-14.25,8.1-6.26,17.44-9.72,27.54-11.07,3.24-.43,6.48-.38,9.72-.38h.16Z" style="fill:#0a0050;"/><path d="m1566.99,255.08v39.42c0,2.11.22,4.21.86,6.21.7,2.21,2.05,3.83,4.43,4.21,1.13.16,1.4.65,1.03,1.67-.16.38-.22.76-.32,1.08-1.3,4.37-1.3,4.48-5.72,3.94-7.18-.86-13.98-2.92-19.71-7.61-6.37-5.24-9.61-12.2-11.28-20.09-.86-4.1-1.24-8.32-1.24-12.53v-56.42c0-1.84-.9-2.75-2.7-2.75h-10.15c-1.4,0-2-.49-1.94-1.89v-11.66c0-1.4.65-1.89,2-1.89h10.91c1.19,0,1.94-.22,1.89-1.67-.22-9.88.49-19.76-.7-29.64-.32-2.92-.92-5.78-1.57-8.64-.22-.97-.27-1.73,1.08-1.84,5.29-.27,10.58-.86,15.82,0,6.86,1.19,12.58,4.1,15.6,10.85,1.24,2.86,1.57,5.89,1.62,8.96.05,6.48.05,13.01,0,19.49,0,1.84.59,2.43,2.43,2.38,5.24-.11,10.47,0,15.66,0,2.38,0,2.54.16,2.54,2.48,0,3.56-.05,7.13,0,10.69,0,1.78-.65,2.32-2.38,2.27-5.24-.11-10.47,0-15.66,0q-2.59,0-2.59,2.7v40.17h.05l.05.11Z" style="fill:#0a0050;"/><path d="m1457.11,210.86c2.38-2.48,4.43-4.81,6.91-6.75,5.83-4.54,12.36-6.97,19.82-7.02,6.75-.05,13.34.49,19.71,2.97,9.34,3.62,14.58,10.53,16.36,20.25.97,5.18.92,10.37.43,15.6-.05.76-.22,1.4-1.08,1.57-8.15,1.46-16.25,2.05-23.65-2.75-3.13-2.05-5.08-5.13-6.37-8.64-.81-2.16-1.62-4.32-2.16-6.53-.92-3.67-3.46-5.51-6.91-6.32-3.29-.81-6.59-.81-9.83-.05-5.99,1.35-9.93,6.26-10.47,12.58-.32,4.32-.38,8.64-.38,13.01v57.56c0,1.78.16,3.56.43,5.35.38,2.7,1.73,4.27,4.48,4.81,1.57.27,1.67.86,1.19,2.21-1.35,3.62-1.4,3.73-5.18,3.35-4.86-.54-9.72-1.35-14.31-3.19-10.58-4.16-16.47-12.04-18.09-23.16-.32-2.21-.38-4.43-.38-6.7v-59.12c0-6.21-.22-12.36-2-18.36-.27-.86-.22-1.51.81-1.73,9.23-1.67,18.03-1.13,25.92,4.64,2.16,1.57,3.94,3.4,4.81,6.43h-.05Z" style="fill:#0a0050;"/><path d="m1244.81,476.72v32.5c0,1.62.16,3.19.38,4.75.49,2.97,1.73,4.48,4.7,5.02,1.35.27,1.57.86,1.03,2-.11.22-.22.49-.27.7-1.13,2.97-1.13,3.02-4.27,2.75-5.94-.49-11.77-1.57-17.17-4.16-9.39-4.43-14.36-12.04-15.87-22.14-.32-2.27-.38-4.59-.38-6.86v-58.75c0-6.26-.22-12.47-2-18.57-.32-1.03-.05-1.57,1.03-1.73,8.05-1.4,15.87-1.24,23.16,3.08,2.92,1.73,5.67,3.67,6.97,7.07.49,1.3.97.43,1.46-.11,2.81-3.35,6.05-6.16,9.83-8.42,7.18-4.32,15.06-4.81,23.11-4.1,5.02.43,9.93,1.46,14.58,3.67,8.32,4.05,12.69,10.85,14.2,19.82.86,4.97.81,9.88.38,14.85-.05.92-.22,1.62-1.3,1.84-7.18,1.3-14.31,1.84-21.17-1.46-4.1-2-6.86-5.24-8.42-9.5-.97-2.65-1.89-5.29-2.75-7.94-.54-1.67-1.57-2.92-2.97-3.83-4.91-3.29-14.74-2.7-19.17,1.19-3.02,2.65-4.37,6.05-4.81,9.88-.54,4.81-.38,9.66-.38,14.52v23.92h.11Z" style="fill:#0a0050;"/><path d="m1375.53,468.41c-.11-7.02.11-14.36.76-21.65.65-7.18,3.46-13.5,8.32-18.74,10.31-11.18,23.16-17.22,38.34-18.47,9.18-.76,18.25-.16,27,2.75,12.53,4.1,19.33,13.55,19.44,26.73v8.21c0,.97-.16,1.73-1.3,2-8.86,2.11-17.22,1.78-24.51-4.54-3.56-3.08-5.72-6.8-5.99-11.5-.27-5.18-3.78-9.56-8.86-10.26-5.51-.81-10.8.11-15.6,3.13-2.65,1.67-4.27,4.16-5.18,7.13-1.51,4.7-2,9.61-2.38,14.47-.7,8.48-.65,16.95-.32,25.43.32,9.61,1.24,19.22,4.64,28.35,2.86,7.78,8.15,11.88,16.58,12.36,8.69.54,17.01-.65,25.22-3.24,1.62-.49,2.21-.16,2.38,1.46.38,4.37,1.51,3.73-3.19,5.67-8.05,3.35-16.25,6.05-25,6.64-6.37.43-12.74-.16-19.06-.54-8.64-.49-15.66-4.48-22.03-9.93-4.32-3.67-5.72-8.64-6.8-13.77-2.16-10.37-2.43-20.84-2.32-31.69h-.11Z" style="fill:#0a0050;"/><path d="m1352.31,468.52v39.2c0,1.46.16,2.92.65,4.32.7,2.05,2,3.56,4.21,4,1.4.27,1.84.86,1.35,2.27-1.89,5.24-.38,5.13-6.53,4.32-8.59-1.08-16.31-4-22.3-10.58-4.86-5.4-7.24-11.93-8.42-18.95-.59-3.46-.81-6.97-.81-10.47v-46.87c0-8.15-.32-16.31-2.05-24.35-.27-1.24,0-2,1.35-2.11,5.83-.43,11.66-.92,17.49.54,10.1,2.54,14.96,8.64,15.01,19.06v39.58l.05.05Z" style="fill:#0a0050;"/><path d="m1334.87,358.69c8.15,0,14.36,6.21,14.36,14.42s-6.37,14.47-14.42,14.47-14.42-6.48-14.42-14.47,6.32-14.36,14.42-14.36l.05-.05Z" style="fill:#0a0050;"/><path d="m809.4,236.72h-10.31c-1.51,0-2-.54-2-2v-21.06c0-1.51.54-2,2-2h21.06c1.51,0,2,.54,2,2v21.06c0,1.51-.54,2.05-2,2-3.56-.05-7.13,0-10.69,0h-.05Z" style="fill:#0a0050;"/><path d="m850.81,224.41c0,3.4-.05,6.75,0,10.15,0,1.62-.43,2.27-2.16,2.27-6.97-.05-13.88-.05-20.84,0-1.51,0-2.16-.43-2.16-2.05.05-7.02.05-14.04,0-21,0-1.62.65-2.05,2.16-2.05,6.97,0,13.88.05,20.84,0,1.73,0,2.16.65,2.16,2.27-.11,3.51,0,7.02,0,10.53v-.11Z" style="fill:#0a0050;"/><path d="m867.44,211.67h10.31c1.51,0,2.16.43,2.16,2.05-.05,7.02-.05,14.04,0,21,0,1.62-.59,2.05-2.16,2.05-6.97-.05-13.88-.05-20.84,0-1.73,0-2.16-.65-2.16-2.27.05-6.86.05-13.77,0-20.63,0-1.84.65-2.32,2.32-2.27,3.46.11,6.86,0,10.31,0l.05.05Z" style="fill:#0a0050;"/><path d="m896,236.72h-10.53c-1.51,0-2-.54-2-2.05v-21.06c0-1.51.54-2,2.05-2h21.06c1.51,0,2,.54,2,2.05v21.06c0,1.51-.54,2-2.05,2-3.51-.05-7.02,0-10.53,0Z" style="fill:#0a0050;"/><path d="m937.26,224.3v10.31c0,1.51-.43,2.16-2.05,2.16-7.02-.05-14.04-.05-21,0-1.62,0-2.05-.65-2.05-2.16,0-6.97.05-13.88,0-20.84,0-1.73.65-2.16,2.27-2.16,6.86.05,13.77.05,20.63,0,1.84,0,2.27.65,2.27,2.38-.11,3.46,0,6.86,0,10.31h-.05Z" style="fill:#0a0050;"/><path d="m764.69,253.13v10.31c0,1.51-.54,2-2,2h-21.06c-1.51,0-2-.54-2-2v-21.06c0-1.51.54-2,2-2h21.06c1.51,0,2.05.54,2,2-.05,3.56,0,7.13,0,10.69v.05Z" style="fill:#0a0050;"/><path d="m793.41,253.03v10.31c0,1.51-.43,2.16-2.05,2.16-7.02-.05-14.04-.05-21,0-1.62,0-2.05-.65-2.05-2.16.05-6.97.05-13.88,0-20.84,0-1.73.65-2.16,2.27-2.16,6.86.05,13.77.05,20.63,0,1.84,0,2.27.65,2.27,2.38-.11,3.46,0,6.86,0,10.31h-.05Z" style="fill:#0a0050;"/><path d="m797.03,252.86v-10.31c0-1.51.38-2.16,2.05-2.16,7.02.05,14.04.05,21,0,1.62,0,2.11.59,2.05,2.11-.05,6.97,0,13.88,0,20.84,0,1.51-.38,2.16-2.05,2.16-7.02-.05-14.04-.05-21,0-1.62,0-2.11-.59-2.05-2.11.05-3.51,0-7.02,0-10.53Z" style="fill:#0a0050;"/><path d="m838.28,265.44c-3.46,0-6.86-.05-10.31,0-1.62,0-2.27-.43-2.27-2.16.05-6.97.05-13.88,0-20.84,0-1.73.65-2.16,2.27-2.16,6.86.05,13.77.05,20.63,0,1.62,0,2.27.43,2.27,2.16-.05,6.97-.05,13.88,0,20.84,0,1.73-.65,2.21-2.27,2.16-3.46-.11-6.86,0-10.31,0Z" style="fill:#0a0050;"/><path d="m854.81,252.81v-10.31c0-1.51.38-2.16,2.05-2.16,7.02.05,14.04.05,21,0,1.62,0,2.05.59,2.05,2.16-.05,6.97-.05,13.88,0,20.84,0,1.73-.59,2.16-2.21,2.16-6.86-.05-13.77-.05-20.63,0-1.78,0-2.32-.65-2.27-2.32.11-3.46,0-6.86,0-10.31v-.05Z" style="fill:#0a0050;"/><path d="m896.11,265.44h-10.69c-1.4,0-1.89-.49-1.89-1.89v-21.44c0-1.3.49-1.84,1.78-1.78h21.6c1.19,0,1.73.49,1.73,1.67v21.6c0,1.3-.49,1.84-1.78,1.78h-10.69l-.05.05Z" style="fill:#0a0050;"/><path d="m924.51,265.44h-10.31c-1.46,0-2.05-.43-2.05-1.94.05-7.07.05-14.15,0-21.22,0-1.57.59-1.94,2.05-1.94,7.02,0,14.04.05,21,0,1.62,0,2.05.65,2.05,2.16-.05,6.97-.05,13.88,0,20.84,0,1.73-.65,2.21-2.27,2.16-3.51-.11-7.02,0-10.53,0l.05-.05Z" style="fill:#0a0050;"/><path d="m966.3,252.92v10.53c0,1.51-.54,2-2,2h-21.06c-1.51,0-2-.54-2-2v-21.06c0-1.51.54-2,2-2h21.06c1.51,0,2,.54,2,2.05-.05,3.51,0,7.02,0,10.53v-.05Z" style="fill:#0a0050;"/><path d="m780.94,211.67h10.31c1.51,0,2.16.43,2.16,2.05-.05,7.02-.05,14.04,0,21,0,1.62-.59,2.05-2.16,2.05-6.97-.05-13.88-.05-20.84,0-1.73,0-2.16-.65-2.16-2.27.05-6.86.05-13.77,0-20.63,0-1.84.65-2.32,2.32-2.27,3.46.11,6.86,0,10.31,0l.05.05Z" style="fill:#0a0050;"/><path d="m764.74,281.64v10.53c0,1.46-.49,2.05-2,2h-21.22c-1.4,0-1.94-.49-1.89-1.89v-21.22c0-1.46.49-2.05,2-2h21.22c1.4,0,1.94.49,1.94,1.89-.05,3.56,0,7.13,0,10.69h-.05Z" style="fill:#0a0050;"/><path d="m780.83,269.06h10.53c1.4,0,2.11.38,2.05,1.94-.05,7.07-.05,14.15,0,21.22,0,1.51-.59,2-2.05,2-7.02,0-14.04-.05-21,0-1.62,0-2.11-.59-2.05-2.11.05-6.97.05-13.88,0-20.84,0-1.73.59-2.21,2.21-2.16,3.46.11,6.86,0,10.31,0v-.05Z" style="fill:#0a0050;"/><path d="m822.09,281.59v10.53c0,1.46-.43,2.05-1.94,2.05h-21.06c-1.46,0-2.05-.43-2.05-1.94v-21.06c0-1.46.43-2.05,1.94-2.05,7.02,0,14.04.05,21.06,0,1.62,0,2.11.65,2.05,2.16-.05,3.46,0,6.91,0,10.31Z" style="fill:#0a0050;"/><path d="m838.28,294.17c-3.46,0-6.86-.05-10.31,0-1.62,0-2.27-.43-2.27-2.16.05-6.97.05-13.88,0-20.84,0-1.73.65-2.16,2.27-2.16,6.86.05,13.77.05,20.63,0,1.62,0,2.27.43,2.27,2.16-.05,6.97-.05,13.88,0,20.84,0,1.73-.65,2.21-2.27,2.16-3.46-.11-6.86,0-10.31,0Z" style="fill:#0a0050;"/><path d="m867.44,269.06h10.31c1.51,0,2.16.43,2.16,2.05-.05,7.02-.05,14.04,0,21,0,1.62-.59,2.05-2.16,2.05-6.97-.05-13.88-.05-20.84,0-1.73,0-2.16-.65-2.16-2.27.05-6.86.05-13.77,0-20.63,0-1.84.65-2.32,2.32-2.27,3.46.11,6.86,0,10.31,0l.05.05Z" style="fill:#0a0050;"/><path d="m908.53,281.48v10.69c0,1.35-.43,1.94-1.89,1.94h-21.22c-1.35,0-1.94-.43-1.94-1.89v-21.22c0-1.35.43-1.94,1.89-1.94h21.22c1.57,0,1.94.65,1.94,2.05-.05,3.46,0,6.91,0,10.31v.05Z" style="fill:#0a0050;"/><path d="m924.84,269.06h10.31c1.51,0,2.16.43,2.16,2.05-.05,7.02-.05,14.04,0,21,0,1.62-.65,2.05-2.16,2.05-6.97-.05-13.88-.05-20.84,0-1.73,0-2.16-.65-2.16-2.27.05-6.86.05-13.77,0-20.63,0-1.84.65-2.27,2.32-2.27,3.46.11,6.86,0,10.31,0l.05.05Z" style="fill:#0a0050;"/><path d="m953.89,269.06h10.31c1.51,0,2.16.43,2.16,2.05-.05,7.02-.05,14.04,0,21,0,1.62-.59,2.05-2.16,2.05-6.97-.05-13.88-.05-20.84,0-1.73,0-2.16-.65-2.16-2.27.05-6.86.05-13.77,0-20.63,0-1.84.65-2.32,2.32-2.27,3.46.11,6.86,0,10.31,0l.05.05Z" style="fill:#0a0050;"/><path d="m995.03,281.64v10.53c0,1.51-.49,2-2,2h-21.22c-1.4,0-1.89-.49-1.89-1.89v-21.44c0-1.3.49-1.84,1.78-1.78h21.38c1.4,0,1.94.49,1.89,1.89-.05,3.56,0,7.13,0,10.69h.05Z" style="fill:#0a0050;"/><path d="m764.74,310.75c0,3.46-.05,6.86,0,10.31,0,1.62-.43,2.27-2.16,2.27-6.97-.05-13.88-.05-20.84,0-1.51,0-2.16-.43-2.16-2.05.05-7.02.05-14.04,0-21,0-1.62.65-2.05,2.16-2.05,6.97,0,13.88.05,20.84,0,1.73,0,2.16.65,2.16,2.27-.11,3.46,0,6.86,0,10.31v-.05Z" style="fill:#0a0050;"/><path d="m768.36,310.69v-10.53c0-1.51.54-2,2-2h21.06c1.51,0,2,.54,2,2v21.06c0,1.51-.54,2-2,2h-21.06c-1.51,0-2.05-.54-2-2,.05-3.51,0-7.02,0-10.53Z" style="fill:#0a0050;"/><path d="m809.5,323.27h-10.31c-1.51,0-2.16-.43-2.16-2.05.05-7.02.05-14.04,0-21,0-1.62.65-2.05,2.16-2.05,6.97.05,13.88.05,20.84,0,1.73,0,2.16.65,2.16,2.27-.05,6.86-.05,13.77,0,20.63,0,1.84-.65,2.32-2.32,2.27-3.46-.11-6.86,0-10.31,0l-.05-.05Z" style="fill:#0a0050;"/><path d="m850.81,310.75v10.53c0,1.46-.49,2.05-2,2h-21.22c-1.4,0-1.94-.49-1.89-1.89v-21.22c0-1.46.49-2.05,2-2h21.22c1.4,0,1.94.49,1.94,1.89-.05,3.56,0,7.13,0,10.69h-.05Z" style="fill:#0a0050;"/><path d="m867.44,298.16h10.31c1.51,0,2.16.43,2.16,2.05-.05,7.02-.05,14.04,0,21,0,1.62-.65,2.05-2.16,2.05-6.97-.05-13.88-.05-20.84,0-1.73,0-2.16-.65-2.16-2.27.05-6.86.05-13.77,0-20.63,0-1.84.65-2.27,2.38-2.27,3.46.11,6.86,0,10.31,0v.05Z" style="fill:#0a0050;"/><path d="m908.58,310.91c0,3.4-.05,6.75,0,10.15,0,1.62-.43,2.27-2.16,2.27-6.97-.05-13.88-.05-20.84,0-1.51,0-2.16-.43-2.16-2.05.05-7.02.05-14.04,0-21,0-1.62.65-2.05,2.16-2.05,6.97,0,13.88.05,20.84,0,1.73,0,2.16.65,2.16,2.27-.11,3.51,0,7.02,0,10.53v-.11Z" style="fill:#0a0050;"/><path d="m924.78,323.27h-10.69c-1.4,0-1.89-.54-1.89-1.89v-21.44c0-1.3.49-1.78,1.84-1.78h21.38c1.4,0,1.89.54,1.89,1.89v21.44c0,1.3-.49,1.78-1.84,1.78h-10.69Z" style="fill:#0a0050;"/><path d="m966.3,310.75v10.31c0,1.51-.43,2.16-2.05,2.16-7.02-.05-14.04-.05-21.06,0-1.51,0-2-.59-1.94-2.05v-21.06c0-1.51.59-2,2.05-1.94h21.06c1.51,0,2,.59,1.94,2.05-.05,3.51,0,7.02,0,10.53Z" style="fill:#0a0050;"/><path d="m982.61,298.16h10.31c1.51,0,2.16.43,2.16,2.05-.05,7.02-.05,14.04,0,21,0,1.62-.65,2.05-2.16,2.05-6.97,0-13.88-.05-20.84,0-1.73,0-2.16-.65-2.16-2.27.05-6.86.05-13.77,0-20.63,0-1.84.65-2.27,2.38-2.27,3.46.11,6.86,0,10.31,0v.05Z" style="fill:#0a0050;"/><path d="m838.34,326.89h10.31c1.51,0,2.16.43,2.16,2.05-.05,7.02-.05,14.04,0,21,0,1.62-.65,2.05-2.16,2.05-6.97-.05-13.88-.05-20.84,0-1.73,0-2.16-.65-2.16-2.27.05-6.86.05-13.77,0-20.63,0-1.84.65-2.27,2.38-2.27,3.46.11,6.86,0,10.31,0v.05Z" style="fill:#0a0050;"/><path d="m867.55,326.89h10.31c1.51,0,2,.54,2,2v21.06c0,1.51-.54,2-2,2h-21.06c-1.51,0-2-.54-2-2v-21.06c0-1.51.54-2.05,2-2,3.56.05,7.13,0,10.69,0h.05Z" style="fill:#0a0050;"/><path d="m908.58,339.52v10.31c0,1.51-.43,2.16-2.05,2.16-7.02-.05-14.04-.05-21,0-1.62,0-2.05-.65-2.05-2.16.05-6.97.05-13.88,0-20.84,0-1.73.65-2.16,2.27-2.16,6.86.05,13.77.05,20.63,0,1.84,0,2.27.65,2.27,2.38-.11,3.46,0,6.86,0,10.31h-.05Z" style="fill:#0a0050;"/><path d="m937.26,339.52v10.31c0,1.51-.43,2.16-2.05,2.16-7.02-.05-14.04-.05-21,0-1.62,0-2.05-.65-2.05-2.16,0-6.97.05-13.88,0-20.84,0-1.73.65-2.16,2.27-2.16,6.86.05,13.77.05,20.63,0,1.84,0,2.27.65,2.27,2.38-.11,3.46,0,6.86,0,10.31h-.05Z" style="fill:#0a0050;"/><path d="m953.89,326.89h10.31c1.51,0,2.16.43,2.16,2.05-.05,7.02-.05,14.04,0,21,0,1.62-.65,2.05-2.16,2.05-6.97-.05-13.88-.05-20.84,0-1.73,0-2.16-.65-2.16-2.27.05-6.86.05-13.77,0-20.63,0-1.84.65-2.27,2.38-2.27,3.46.11,6.86,0,10.31,0v.05Z" style="fill:#0a0050;"/><path d="m752.27,211.67h10.31c1.51,0,2.16.43,2.16,2.05-.05,7.02-.05,14.04,0,21,0,1.62-.65,2.05-2.16,2.05-6.97,0-13.88-.05-20.84,0-1.73,0-2.16-.65-2.16-2.27.05-6.86.05-13.77,0-20.63,0-1.84.7-2.27,2.38-2.27,3.46.11,6.86,0,10.31,0v.05Z" style="fill:#0a0050;"/><path d="m838.34,355.56h10.31c1.51,0,2.16.43,2.16,2.05-.05,7.02-.05,14.04,0,21,0,1.62-.59,2.05-2.16,2.05-6.97-.05-13.88-.05-20.84,0-1.73,0-2.16-.65-2.16-2.27.05-6.86.05-13.77,0-20.63,0-1.84.65-2.32,2.32-2.27,3.46.11,6.86,0,10.31,0l.05.05Z" style="fill:#0a0050;"/><path d="m879.86,368.25v10.31c0,1.51-.43,2.16-2.05,2.16-7.02-.05-14.04-.05-21,0-1.62,0-2.05-.65-2.05-2.16,0-6.97.05-13.88,0-20.84,0-1.51.43-2.16,2.05-2.16,7.02.05,14.04.05,21,0,1.62,0,2.05.65,2.05,2.16-.05,3.51,0,7.02,0,10.53Z" style="fill:#0a0050;"/><path d="m908.58,368.2v10.31c0,1.51-.43,2.16-2.05,2.16-7.02-.05-14.04-.05-21,0-1.62,0-2.05-.65-2.05-2.16.05-6.97.05-13.88,0-20.84,0-1.73.65-2.16,2.27-2.16,6.86.05,13.77.05,20.63,0,1.84,0,2.27.65,2.27,2.32-.11,3.46,0,6.86,0,10.31l-.05.05Z" style="fill:#0a0050;"/><path d="m937.26,368.14v10.53c0,1.51-.54,2-2,2h-21.06c-1.51,0-2-.54-2-2v-21.06c0-1.51.54-2,2-2h21.06c1.51,0,2.05.54,2,2-.05,3.51,0,7.02,0,10.53Z" style="fill:#0a0050;"/><path d="m966.36,368.2v10.31c0,1.51-.43,2.16-2.05,2.16-7.02-.05-14.04-.05-21,0-1.62,0-2.05-.59-2.05-2.16.05-6.97.05-13.88,0-20.84,0-1.73.65-2.16,2.27-2.16,6.86.05,13.77.05,20.63,0,1.84,0,2.32.65,2.27,2.32-.11,3.46,0,6.86,0,10.31l-.05.05Z" style="fill:#0a0050;"/><path d="m850.76,396.81v10.53c0,1.51-.54,2-2,2h-21.06c-1.46,0-2-.54-2-2v-21.06c0-1.46.54-2,2-2h21.06c1.46,0,2.05.54,2,2-.05,3.51,0,7.02,0,10.53Z" style="fill:#0a0050;"/><path d="m879.86,396.81c0,3.46-.05,6.86,0,10.31,0,1.62-.43,2.27-2.16,2.27-6.97-.05-13.88-.05-20.84,0-1.73,0-2.16-.65-2.16-2.27.05-6.86.05-13.77,0-20.63,0-1.62.43-2.27,2.16-2.27,6.97.05,13.88.05,20.84,0,1.73,0,2.21.65,2.16,2.27-.11,3.46,0,6.86,0,10.31Z" style="fill:#0a0050;"/><path d="m908.53,396.81v10.53c0,1.51-.54,2-2,2h-21.06c-1.46,0-2-.54-2-2v-21.06c0-1.51.54-2,2-2h21.06c1.46,0,2.05.54,2,2-.05,3.51,0,7.02,0,10.53Z" style="fill:#0a0050;"/><path d="m937.26,397.03c0,3.4-.05,6.75,0,10.15,0,1.62-.43,2.27-2.16,2.27-6.97-.05-13.88-.05-20.84,0-1.51,0-2.16-.43-2.16-2.05.05-7.02.05-14.04,0-21,0-1.62.65-2.05,2.16-2.05,6.97,0,13.88.05,20.84,0,1.73,0,2.16.65,2.16,2.27-.11,3.51,0,7.02,0,10.53v-.11Z" style="fill:#0a0050;"/><path d="m941.31,396.65v-10.31c0-1.46.43-2.05,2-2.05h21.06c1.46,0,2.05.43,2.05,2v21.06c0,1.46-.43,2.05-2,2.05-7.02,0-14.04-.05-21.06,0-1.62,0-2.05-.65-2.05-2.16.05-3.51,0-7.02,0-10.53v-.05Z" style="fill:#0a0050;"/><path d="m994.38,384.29h10.53c1.46,0,2,.49,2,2v21.22c0,1.4-.49,1.89-1.89,1.89h-21.38c-1.3,0-1.84-.49-1.78-1.78v-21.44c0-1.4.49-1.94,1.89-1.89,3.56.05,7.13,0,10.69,0h-.05Z" style="fill:#0a0050;"/><path d="m908.58,195.31v10.31c0,1.46-.43,2.05-1.94,2.05-7.07-.05-14.15-.05-21.22,0-1.57,0-1.94-.59-1.94-2.05,0-7.02.05-14.04,0-21,0-1.62.65-2.05,2.16-2.05,6.97,0,13.88.05,20.84,0,1.73,0,2.16.65,2.16,2.27-.11,3.51,0,7.02,0,10.53l-.05-.05Z" style="fill:#0a0050;"/><path d="m867.17,207.62h-10.31c-1.46,0-2.05-.49-2.05-2v-21.06c0-1.46.49-2.05,2-2.05h21.06c1.46,0,2.05.49,2.05,2v21.06c0,1.46-.49,2.05-2,2.05-3.56-.05-7.13,0-10.69,0h-.05Z" style="fill:#0a0050;"/><path d="m850.81,195.31v10.31c0,1.46-.43,2.05-1.94,2.05-7.07-.05-14.15-.05-21.22,0-1.57,0-1.94-.59-1.94-2.05,0-7.02.05-14.04,0-21,0-1.62.65-2.05,2.16-2.05,6.97.05,13.88.05,20.84,0,1.73,0,2.21.65,2.16,2.27-.11,3.51,0,7.02,0,10.53l-.05-.05Z" style="fill:#0a0050;"/><path d="m809.56,207.67h-10.53c-1.46,0-2.05-.43-2.05-2,.05-7.07,0-14.15,0-21.22,0-1.35.43-1.94,1.89-1.94h21.38c1.3,0,1.84.43,1.84,1.78v21.6c0,1.35-.65,1.73-1.89,1.73h-10.69l.05.05Z" style="fill:#0a0050;"/><path d="m838.18,438.44h-10.53c-1.35,0-1.94-.43-1.94-1.89v-21.44c0-1.3.43-1.84,1.78-1.84h21.6c1.19,0,1.73.43,1.73,1.67v21.81c0,1.3-.59,1.62-1.78,1.62h-10.91l.05.05Z" style="fill:#0a0050;"/><path d="m867.17,438.44h-10.31c-1.51,0-2-.54-2-2v-21.06c0-1.51.54-2,2-2h21.06c1.51,0,2,.54,2,2v21.06c0,1.51-.54,2.05-2,2-3.56-.05-7.13,0-10.69,0h-.05Z" style="fill:#0a0050;"/><path d="m896.11,413.39h10.31c1.51,0,2.16.43,2.16,2.05-.05,7.02-.05,14.04,0,21,0,1.62-.65,2.05-2.16,2.05-6.97,0-13.88-.05-20.84,0-1.51,0-2.16-.43-2.16-2.05.05-7.02.05-14.04,0-21,0-1.62.65-2.05,2.16-2.05,3.51.05,7.02,0,10.53,0Z" style="fill:#0a0050;"/><path d="m924.73,438.44c-3.46,0-6.86-.05-10.31,0-1.62,0-2.27-.43-2.27-2.16.05-6.97.05-13.88,0-20.84,0-1.73.65-2.16,2.27-2.16,6.86.05,13.77.05,20.63,0,1.62,0,2.27.43,2.27,2.16-.05,6.97-.05,13.88,0,20.84,0,1.73-.65,2.21-2.27,2.16-3.46-.11-6.86,0-10.31,0Z" style="fill:#0a0050;"/><path d="m966.36,426.02v10.31c0,1.51-.43,2.16-2.05,2.16-7.02-.05-14.04-.05-21,0-1.62,0-2.05-.65-2.05-2.16.05-6.97.05-13.88,0-20.84,0-1.73.65-2.16,2.27-2.16,6.86.05,13.77.05,20.63,0,1.84,0,2.27.65,2.27,2.38-.11,3.46,0,6.86,0,10.31h-.05Z" style="fill:#0a0050;"/><path d="m981.85,425.75v-10.31c0-1.51.54-2,2-2h21.06c1.46,0,2,.54,2,2v21.06c0,1.46-.54,2-2,2h-21.06c-1.46,0-2.05-.54-2-2,.05-3.56,0-7.13,0-10.69v-.05Z" style="fill:#0a0050;"/><path d="m879.86,454.8v10.31c0,1.4-.38,2.05-1.94,2.05-7.07-.05-14.15-.05-21.22,0-1.51,0-1.94-.59-1.94-2.05,0-7.02.05-14.04,0-21,0-1.62.59-2.05,2.16-2.05,6.97.05,13.88.05,20.84,0,1.73,0,2.21.65,2.16,2.27-.11,3.51,0,7.02,0,10.53l-.05-.05Z" style="fill:#0a0050;"/><path d="m896.11,442.06h10.31c1.51,0,2.16.43,2.16,2.05-.05,7.02-.05,14.04,0,21,0,1.62-.59,2.05-2.16,2.05-6.97-.05-13.88-.05-20.84,0-1.73,0-2.16-.65-2.16-2.27.05-6.86.05-13.77,0-20.63,0-1.84.65-2.32,2.32-2.27,3.46.11,6.86,0,10.31,0l.05.05Z" style="fill:#0a0050;"/><path d="m924.57,467.17h-10.31c-1.46,0-2.05-.43-2.05-2v-21.06c0-1.46.43-2.05,2-2.05h21.06c1.46,0,2.05.43,2.05,2,0,7.02-.05,14.04,0,21.06,0,1.62-.65,2.05-2.16,2.05-3.51-.05-7.02,0-10.53,0h-.05Z" style="fill:#0a0050;"/><path d="m793.36,195.2v10.53c0,1.4-.49,1.94-1.89,1.94h-21.22c-1.4,0-1.94-.49-1.94-1.89v-21.22c0-1.4.49-1.94,1.89-1.94h21.22c1.57,0,1.94.7,1.94,2.11-.05,3.51,0,7.02,0,10.53v-.05Z" style="fill:#0a0050;"/><path d="m752.27,182.56h10.31c1.51,0,2.16.43,2.16,2.05-.05,7.02-.05,14.04,0,21,0,1.62-.65,2.05-2.16,2.05-6.97-.05-13.88-.05-20.84,0-1.73,0-2.16-.65-2.16-2.27.05-6.86.05-13.77,0-20.63,0-1.84.65-2.27,2.38-2.27,3.46.11,6.86,0,10.31,0v.05Z" style="fill:#0a0050;"/><path d="m867.17,495.89c-3.4,0-6.75-.05-10.15,0-1.62,0-2.27-.43-2.27-2.16.05-6.97.05-13.88,0-20.84,0-1.51.43-2.16,2.05-2.16,7.02.05,14.04.05,21,0,1.62,0,2.05.65,2.05,2.16,0,6.97-.05,13.88,0,20.84,0,1.73-.65,2.16-2.27,2.16-3.51-.11-7.02,0-10.53,0h.11Z" style="fill:#0a0050;"/><path d="m896.06,470.84h10.53c1.51,0,2,.54,2,2v21.06c0,1.51-.54,2-2,2h-21.06c-1.46,0-2-.54-2-2v-21.06c0-1.51.54-2.05,2-2,3.51.05,7.02,0,10.53,0Z" style="fill:#0a0050;"/><path d="m924.89,470.78c3.46,0,6.86.05,10.31,0,1.57,0,2.11.54,2.11,2.11-.05,7.02-.05,14.04,0,21,0,1.51-.54,2-2,2-7.02,0-14.04-.05-21,0-1.57,0-2.11-.54-2.11-2.11.05-7.02.05-14.04,0-21,0-1.51.54-2,2-2,3.56.05,7.13,0,10.69,0Z" style="fill:#0a0050;"/><path d="m896.17,499.89h10.53c1.35,0,1.94.43,1.94,1.89v21.44c0,1.3-.43,1.84-1.78,1.84h-21.6c-1.35,0-1.73-.59-1.73-1.84v-21.44c0-1.46.65-1.84,1.94-1.84h10.69v-.05Z" style="fill:#0a0050;"/></svg>