<svg xmlns="http://www.w3.org/2000/svg" xmlns:xlink="http://www.w3.org/1999/xlink" width="1976" height="512" viewBox="0 0 1976 512">
  <defs>
    <clipPath id="clip-unesco">
      <rect width="1976" height="512"/>
    </clipPath>
  </defs>
  <g id="unesco" clip-path="url(#clip-unesco)">
    <rect width="1976" height="512" fill="rgba(255,255,255,0)"/>
    <g id="Layer_1" data-name="Layer 1" transform="translate(367.925)">
      <g id="Group_167" data-name="Group 167">
        <g id="Group_164" data-name="Group 164">
          <path id="Path_156" data-name="Path 156" d="M1031.59,409.42a28.72,28.72,0,1,1-.11-40.79l.73.73,13.08-27.8-.5-.36a58.311,58.311,0,1,0-.06,95.26l.49-.35-12.9-27.42-.74.73Z" fill="#0a0050"/>
          <path id="Path_157" data-name="Path 157" d="M1114.21,330.71a58.2,58.2,0,1,0,58.2,58.2,58.262,58.262,0,0,0-58.2-58.2m.15,87.14a28.67,28.67,0,1,1,28.66-28.67,28.7,28.7,0,0,1-28.66,28.67" fill="#0a0050"/>
          <path id="Path_158" data-name="Path 158" d="M477.42,334.18v60.19c0,4.89.49,12.48,6.12,17.62,2.44,2.2,6.85,5.14,14.68,5.14,6.6,0,11.74-2.2,14.92-5.14,5.14-4.89,5.87-12.23,5.87-17.62V334.18h35.23v63.61c0,12.48-1.23,24.22-12.23,34.99-12.48,12.23-30.83,14.19-43.79,14.19s-31.56-1.96-44.04-14.19C444.15,423,442.19,411.99,442.19,400V334.18h35.23Z" fill="#0a0050"/>
          <path id="Path_159" data-name="Path 159" d="M581.64,334.18h35.23v12.97c10.76-13.7,23.48-15.9,33.76-15.9,9.54,0,22.02,1.71,31.32,11.01,10.27,10.27,11.01,23.24,11.01,32.05v69H657.73V387.28c0-7.09-.24-16.14-5.87-21.77-2.69-2.69-7.1-4.89-13.45-4.89-7.35,0-11.99,2.93-14.69,5.87-5.87,5.87-6.85,13.7-6.85,20.79v56.03H581.64V334.19Z" fill="#0a0050"/>
          <path id="Path_160" data-name="Path 160" d="M832.18,394.85H750.7c0,5.87,2.2,13.7,6.6,18.6,5.38,5.87,12.72,6.85,18.1,6.85s10.52-.98,14.19-3.18c.49-.25,4.65-2.93,7.58-9.05l33.28,3.43a48.806,48.806,0,0,1-21.04,27.4c-10.52,6.36-22.27,8.07-34.5,8.07-16.39,0-30.83-2.94-43.55-15.66-9.54-9.54-16.39-23.97-16.39-42.08,0-15.66,5.63-31.8,16.63-43.06,13.21-13.21,29.61-15.66,41.84-15.66s29.85,2.2,43.31,16.39c12.96,13.7,15.41,30.83,15.41,44.28v3.67Zm-32.55-21.04c-.25-.98-1.96-7.83-7.1-12.72-3.91-3.67-9.54-6.12-16.64-6.12-9.05,0-14.43,3.67-17.86,7.1a24.593,24.593,0,0,0-6.12,11.74h47.71Z" fill="#0a0050"/>
          <path id="Path_161" data-name="Path 161" d="M920.98,362.07c-5.38-3.18-12.48-6.12-19.32-6.12-3.67,0-7.83.98-10.04,3.18a7.545,7.545,0,0,0-2.2,4.9c0,2.45,1.71,3.91,3.42,4.89,2.45,1.47,6.12,2.2,10.52,3.67l9.3,2.94c6.11,1.95,12.48,4.4,18.1,9.54,6.36,5.88,8.56,12.48,8.56,20.8,0,14.43-6.36,23.73-11.25,28.63-10.77,10.76-23.98,12.47-35.48,12.47-14.68,0-30.58-3.18-44.78-15.66l14.93-23.73a60.7,60.7,0,0,0,11.99,8.08,32.885,32.885,0,0,0,14.68,3.43c2.2,0,7.83,0,11.01-2.45a9.274,9.274,0,0,0,3.67-7.1c0-1.96-.73-4.4-3.91-6.36-2.45-1.47-5.62-2.45-10.76-3.92l-8.81-2.69c-6.37-1.96-12.97-5.38-17.62-10.03a26.924,26.924,0,0,1-7.83-19.82c0-10.52,4.16-19.33,10.52-25.2,9.79-9.05,23-11.01,33.03-11.01,16.14,0,27.4,4.16,36.2,9.3l-13.94,22.27Z" fill="#0a0050"/>
        </g>
        <g id="Group_165" data-name="Group 165">
          <path id="Path_162" data-name="Path 162" d="M254.69,419.31V356.07a1.619,1.619,0,0,0-1.77-1.59,1.557,1.557,0,0,0-1.59,1.59v63.24s0,1.41,1.76,1.41,1.59-1.41,1.59-1.41Z" fill="#0a0050"/>
          <path id="Path_163" data-name="Path 163" d="M0,250.7V511.36H1240.06V250.7ZM115.68,420.72c1.59,0,1.59-1.24,1.59-1.24V350.77h4.42v68.54s.35,5.3-5.66,5.3-6-5.3-6-5.3V350.77h4.41v68.36S114.08,420.72,115.68,420.72Zm152.96,7.74v7.06H100.13v-7.06H268.64Zm-130.88-3.85V350.77h3.53l4.42,39.46V350.77h3.71v73.84h-3.71l-4.42-44.39v44.39Zm37.8-41.34v4.06h-4.77v33.38h6.36v3.89h-11.3V350.76h9.71v3.71h-4.77v28.79h4.77Zm21.81,37.36c1.15.09,1.15-1.32,1.15-1.32V402.26c0-7.16-6.89-22.79-6.89-32.06V356.07s0-5.12,5.83-5.3a5.093,5.093,0,0,1,5.65,5.3v16.6h-4.59v-16.6s0-1.59-1.24-1.59-1.06,1.59-1.06,1.59v16.61c0,5.47,6.87,21.98,6.89,30.65v15.98a5.372,5.372,0,0,1-5.83,5.3c-5.83,0-5.65-5.3-5.65-5.3V400.76h4.59v18.55a1.3,1.3,0,0,0,1.15,1.32Zm27.64-66.15a1.557,1.557,0,0,0-1.59,1.59v63.24a1.715,1.715,0,0,0,1.59,1.41,1.381,1.381,0,0,0,1.41-1.41V400.76h4.41v18.55a5.372,5.372,0,0,1-5.83,5.3c-5.83,0-5.65-5.3-5.65-5.3V356.07a5.306,5.306,0,0,1,5.65-5.3,5.522,5.522,0,0,1,5.83,5.3v16.6h-4.41v-16.6S226.42,354.48,225.01,354.48Zm21.91,64.83V356.07s0-5.3,6.18-5.3,5.83,5.3,5.83,5.3v63.24s0,5.3-6.19,5.3a5.372,5.372,0,0,1-5.83-5.3ZM100.13,346.46V339.4H268.64v7.06Zm13.6-11.61,70.58-21.55,69.67,21.55H233.49l-49.18-15.02-50.09,15.02Zm-13.6-7.6,84.19-25.97,84.32,25.97v7.59l-84.32-25.61-84.19,25.61v-7.59ZM90.59,440.47H277.82v7.06H90.59Zm196.42,19.08H81.76v-7.07H287.01Zm943.97,43.67H362.65V258.83h868.33V503.22Z" fill="#0a0050"/>
        </g>
        <g id="Group_166" data-name="Group 166">
          <path id="Path_164" data-name="Path 164" d="M70.64,33.34c-.22-5.83-.43-12.89-.43-19.95h-.22c-1.51,6.19-3.53,13.11-5.4,18.79l-5.9,18.94H50.12L44.94,32.33c-1.58-5.69-3.24-12.6-4.39-18.94h-.14c-.29,6.55-.5,14.04-.86,20.09l-.86,18.43H28.54L31.61,3.38H46.23l4.75,16.2c1.51,5.62,3.02,11.66,4.1,17.35h.22c1.37-5.62,3.02-12.02,4.61-17.43L65.09,3.37H79.42L82.08,51.9H71.35l-.72-18.58Z" fill="#0a0050"/>
          <path id="Path_165" data-name="Path 165" d="M98.07,37.8c.36,4.54,4.82,6.7,9.94,6.7a30.9,30.9,0,0,0,9.72-1.44l1.44,7.42a34.757,34.757,0,0,1-12.75,2.16c-11.95,0-18.79-6.91-18.79-17.93,0-8.93,5.54-18.79,17.79-18.79,11.38,0,15.7,8.86,15.7,17.57a26.448,26.448,0,0,1-.36,4.32H98.08Zm12.89-7.49c0-2.66-1.15-7.13-6.19-7.13-4.61,0-6.48,4.18-6.77,7.13h12.96Z" fill="#0a0050"/>
          <path id="Path_166" data-name="Path 166" d="M126.94,27.94c0-4.39-.14-8.14-.29-11.23h9.22l.5,4.75h.22a12.215,12.215,0,0,1,10.66-5.54c4.54,0,8.14,2.3,9.65,5.98h.14a15.806,15.806,0,0,1,4.54-4.25,12.707,12.707,0,0,1,6.7-1.73c6.77,0,11.88,4.75,11.88,15.27V51.93H169.5V32.78c0-5.11-1.66-8.06-5.18-8.06a5.357,5.357,0,0,0-5.04,3.82,9.071,9.071,0,0,0-.43,2.81V51.94H148.19V32.21c0-4.46-1.58-7.49-5.04-7.49a5.568,5.568,0,0,0-5.11,3.96,7.244,7.244,0,0,0-.43,2.74V51.94H126.95V27.96Z" fill="#0a0050"/>
          <path id="Path_167" data-name="Path 167" d="M187.85,51.92c.14-2.3.29-6.55.29-10.51V.79h10.94V20.88h.14c2.09-3.02,5.76-4.97,10.66-4.97,8.42,0,14.62,6.98,14.55,17.79,0,12.67-8.06,19.01-16.13,19.01a11.677,11.677,0,0,1-10.58-5.69h-.14l-.43,4.9h-9.29Zm11.23-14.98a7.669,7.669,0,0,0,.22,1.94,6.623,6.623,0,0,0,6.41,5.18c4.68,0,7.56-3.6,7.56-9.94,0-5.47-2.45-9.79-7.56-9.79a6.784,6.784,0,0,0-6.41,5.4,9.4,9.4,0,0,0-.22,2.02v5.18Z" fill="#0a0050"/>
          <path id="Path_168" data-name="Path 168" d="M239.11,37.8c.36,4.54,4.82,6.7,9.94,6.7a30.9,30.9,0,0,0,9.72-1.44l1.44,7.42a34.757,34.757,0,0,1-12.75,2.16c-11.95,0-18.79-6.91-18.79-17.93,0-8.93,5.54-18.79,17.79-18.79,11.38,0,15.7,8.86,15.7,17.57a26.45,26.45,0,0,1-.36,4.32H239.12ZM252,30.31c0-2.66-1.15-7.13-6.19-7.13-4.61,0-6.48,4.18-6.77,7.13H252Z" fill="#0a0050"/>
          <path id="Path_169" data-name="Path 169" d="M267.98,28.3c0-5.18-.14-8.57-.29-11.59h9.43l.36,6.48h.29a10.342,10.342,0,0,1,9.5-7.27,11.534,11.534,0,0,1,2.3.14v10.3a16,16,0,0,0-2.95-.29c-4.03,0-6.77,2.16-7.49,5.54a13.2,13.2,0,0,0-.22,2.45V51.92H267.97V28.3Z" fill="#0a0050"/>
          <path id="Path_170" data-name="Path 170" d="M343.23,33.92c0,12.89-9.15,18.79-18.58,18.79-10.3,0-18.22-6.77-18.22-18.15s7.49-18.65,18.79-18.65,18,7.42,18,18Zm-25.49.35c0,6.05,2.52,10.58,7.2,10.58,4.25,0,6.98-4.25,6.98-10.58,0-5.26-2.02-10.58-6.98-10.58-5.26,0-7.2,5.4-7.2,10.58Z" fill="#0a0050"/>
          <path id="Path_171" data-name="Path 171" d="M350.5,51.92V24.77h-4.61V16.71h4.61V15.34c0-4.25,1.3-8.93,4.46-11.81A14.278,14.278,0,0,1,364.68,0a21.059,21.059,0,0,1,5.83.72l-.43,8.42a11.82,11.82,0,0,0-3.53-.5c-3.6,0-5.11,2.81-5.11,6.26v1.8h7.06v8.06h-6.98V51.91H350.5Z" fill="#0a0050"/>
          <path id="Path_172" data-name="Path 172" d="M70.13,132.68a54.318,54.318,0,0,1-16.2,2.74c-8.86,0-15.27-2.23-19.73-6.55-4.46-4.18-6.91-10.51-6.84-17.64.07-16.13,11.81-25.35,27.72-25.35,6.26,0,11.09,1.22,13.47,2.38l-2.3,8.78a26.926,26.926,0,0,0-11.31-2.09c-9.15,0-16.06,5.18-16.06,15.7s6.26,15.91,15.27,15.91a14.723,14.723,0,0,0,5.4-.72V115.69H52.06v-8.57H70.13v25.56Z" fill="#0a0050"/>
          <path id="Path_173" data-name="Path 173" d="M77.83,83.79H88.77v51.12H77.83V83.79Z" fill="#0a0050"/>
          <path id="Path_174" data-name="Path 174" d="M131.69,116.92c0,12.89-9.15,18.79-18.58,18.79-10.3,0-18.22-6.77-18.22-18.15s7.49-18.65,18.79-18.65,18,7.42,18,18Zm-25.49.35c0,6.05,2.52,10.58,7.2,10.58,4.25,0,6.98-4.25,6.98-10.58,0-5.26-2.02-10.58-6.98-10.58C108.14,106.69,106.2,112.09,106.2,117.27Z" fill="#0a0050"/>
          <path id="Path_175" data-name="Path 175" d="M137.45,134.92c.14-2.3.29-6.55.29-10.51V83.8h10.94v20.09h.14c2.09-3.02,5.76-4.97,10.66-4.97,8.42,0,14.62,6.98,14.55,17.79,0,12.67-8.06,19.01-16.13,19.01a11.677,11.677,0,0,1-10.58-5.69h-.14l-.43,4.9h-9.29Zm11.23-14.98a7.669,7.669,0,0,0,.22,1.94,6.623,6.623,0,0,0,6.41,5.18c4.68,0,7.56-3.6,7.56-9.94,0-5.47-2.45-9.79-7.56-9.79a6.784,6.784,0,0,0-6.41,5.4,9.4,9.4,0,0,0-.22,2.02v5.18Z" fill="#0a0050"/>
          <path id="Path_176" data-name="Path 176" d="M200.09,134.92l-.65-3.53h-.22a12.666,12.666,0,0,1-10.08,4.32c-7.13,0-11.38-5.18-11.38-10.8,0-9.15,8.21-13.54,20.67-13.47v-.5c0-1.87-1.01-4.54-6.41-4.54a19.789,19.789,0,0,0-9.72,2.66L180.28,102a29.03,29.03,0,0,1,13.68-3.1c11.74,0,15.48,6.91,15.48,15.19v12.24a54.739,54.739,0,0,0,.5,8.57h-9.86Zm-1.3-16.64c-5.76-.07-10.22,1.3-10.22,5.54,0,2.81,1.87,4.18,4.32,4.18a5.978,5.978,0,0,0,5.69-4.03,8.051,8.051,0,0,0,.22-1.87v-3.82Z" fill="#0a0050"/>
          <path id="Path_177" data-name="Path 177" d="M217.37,83.79h10.94v51.12H217.37V83.79Z" fill="#0a0050"/>
          <path id="Path_178" data-name="Path 178" d="M279.51,114.39H261.65v11.52H281.6v9H250.64V86.38h29.95v9H261.65v10.08h17.86v8.93Z" fill="#0a0050"/>
          <path id="Path_179" data-name="Path 179" d="M321.84,83.79V124.4c0,3.96.14,8.14.29,10.51h-9.72l-.5-5.18h-.14a12.294,12.294,0,0,1-11.02,5.98c-8.35,0-15.05-7.13-15.05-18.07-.07-11.88,7.34-18.72,15.77-18.72,4.32,0,7.7,1.51,9.29,3.96h.14V83.8h10.94ZM310.9,114.61a17.889,17.889,0,0,0-.14-1.94,6.575,6.575,0,0,0-6.41-5.4c-4.97,0-7.56,4.46-7.56,10.01,0,5.98,2.95,9.72,7.49,9.72a6.412,6.412,0,0,0,6.34-5.26,9.132,9.132,0,0,0,.29-2.52v-4.61Z" fill="#0a0050"/>
          <path id="Path_180" data-name="Path 180" d="M363.1,123.61c0,4.61.14,8.35.29,11.31h-9.5l-.5-4.97h-.22a12.564,12.564,0,0,1-11.02,5.76c-7.13,0-12.38-4.46-12.38-15.34V99.7h11.02v18.94c0,5.11,1.66,8.21,5.47,8.21a5.892,5.892,0,0,0,5.47-3.82,6.085,6.085,0,0,0,.36-2.38V99.7h11.02v23.91Z" fill="#0a0050"/>
          <path id="Path_181" data-name="Path 181" d="M397.59,134.05a26.792,26.792,0,0,1-9.79,1.58c-11.38,0-18.65-6.91-18.65-18,0-10.3,7.06-18.72,20.16-18.72a25.2,25.2,0,0,1,8.35,1.37l-1.73,8.14a14.92,14.92,0,0,0-6.12-1.08c-5.76,0-9.5,4.1-9.43,9.87,0,6.48,4.32,9.86,9.65,9.86a16.8,16.8,0,0,0,6.26-1.08Z" fill="#0a0050"/>
          <path id="Path_182" data-name="Path 182" d="M423.22,134.92l-.65-3.53h-.22a12.666,12.666,0,0,1-10.08,4.32c-7.13,0-11.38-5.18-11.38-10.8,0-9.15,8.21-13.54,20.67-13.47v-.5c0-1.87-1.01-4.54-6.41-4.54a19.789,19.789,0,0,0-9.72,2.66L403.41,102a29.03,29.03,0,0,1,13.68-3.1c11.74,0,15.48,6.91,15.48,15.19v12.24a54.741,54.741,0,0,0,.5,8.57h-9.86Zm-1.3-16.64c-5.76-.07-10.22,1.3-10.22,5.54,0,2.81,1.87,4.18,4.32,4.18a5.978,5.978,0,0,0,5.69-4.03,8.05,8.05,0,0,0,.22-1.87v-3.82Z" fill="#0a0050"/>
          <path id="Path_183" data-name="Path 183" d="M452.16,89.62V99.7h7.85v8.06h-7.85v12.75c0,4.25,1.01,6.19,4.32,6.19a17.281,17.281,0,0,0,3.24-.29l.07,8.28a21.341,21.341,0,0,1-7.13.94,11.387,11.387,0,0,1-8.21-3.02c-2.02-2.09-3.02-5.47-3.02-10.44v-14.4h-4.68V99.71h4.68V92.08l10.73-2.45Z" fill="#0a0050"/>
          <path id="Path_184" data-name="Path 184" d="M476.93,89.91c0,3.02-2.3,5.47-5.9,5.47s-5.76-2.45-5.69-5.47c-.07-3.17,2.23-5.54,5.76-5.54A5.486,5.486,0,0,1,476.93,89.91Zm-11.31,45.01V99.71h10.94v35.21Z" fill="#0a0050"/>
          <path id="Path_185" data-name="Path 185" d="M519.41,116.92c0,12.89-9.15,18.79-18.58,18.79-10.3,0-18.22-6.77-18.22-18.15s7.49-18.65,18.79-18.65,18,7.42,18,18Zm-25.49.35c0,6.05,2.52,10.58,7.2,10.58,4.25,0,6.98-4.25,6.98-10.58,0-5.26-2.02-10.58-6.98-10.58C495.86,106.69,493.92,112.09,493.92,117.27Z" fill="#0a0050"/>
          <path id="Path_186" data-name="Path 186" d="M525.45,110.94c0-4.39-.14-8.14-.29-11.23h9.5l.5,4.82h.22a12.894,12.894,0,0,1,10.87-5.62c7.2,0,12.6,4.75,12.6,15.12v20.88H547.91V115.4c0-4.54-1.58-7.63-5.54-7.63a5.844,5.844,0,0,0-5.54,4.1,7.5,7.5,0,0,0-.43,2.74v20.31H525.46V110.94Z" fill="#0a0050"/>
          <path id="Path_187" data-name="Path 187" d="M616.75,133.55c-2.02,1.01-6.55,2.09-12.46,2.09-16.78,0-25.42-10.44-25.42-24.27,0-16.56,11.81-25.78,26.5-25.78,5.69,0,10.01,1.15,11.95,2.16l-2.23,8.71a23.632,23.632,0,0,0-9.22-1.8c-8.71,0-15.48,5.26-15.48,16.06,0,9.72,5.76,15.84,15.55,15.84a27.511,27.511,0,0,0,9.14-1.58l1.66,8.57Z" fill="#0a0050"/>
          <path id="Path_188" data-name="Path 188" d="M656.28,116.92c0,12.89-9.14,18.79-18.58,18.79-10.3,0-18.22-6.77-18.22-18.15s7.49-18.65,18.79-18.65,18,7.42,18,18Zm-25.49.35c0,6.05,2.52,10.58,7.2,10.58,4.25,0,6.98-4.25,6.98-10.58,0-5.26-2.02-10.58-6.98-10.58C632.73,106.69,630.79,112.09,630.79,117.27Z" fill="#0a0050"/>
          <path id="Path_189" data-name="Path 189" d="M682.34,134.92l-.65-3.53h-.22a12.667,12.667,0,0,1-10.08,4.32c-7.13,0-11.38-5.18-11.38-10.8,0-9.15,8.21-13.54,20.67-13.47v-.5c0-1.87-1.01-4.54-6.41-4.54a19.789,19.789,0,0,0-9.72,2.66L662.53,102a29.03,29.03,0,0,1,13.68-3.1c11.74,0,15.48,6.91,15.48,15.19v12.24a54.741,54.741,0,0,0,.5,8.57h-9.87Zm-1.29-16.64c-5.76-.07-10.23,1.3-10.23,5.54,0,2.81,1.87,4.18,4.32,4.18a5.978,5.978,0,0,0,5.69-4.03,8.05,8.05,0,0,0,.22-1.87Z" fill="#0a0050"/>
          <path id="Path_190" data-name="Path 190" d="M699.62,83.79h10.94v51.12H699.62V83.79Z" fill="#0a0050"/>
          <path id="Path_191" data-name="Path 191" d="M730,89.91c0,3.02-2.3,5.47-5.9,5.47s-5.76-2.45-5.69-5.47c-.07-3.17,2.23-5.54,5.76-5.54A5.486,5.486,0,0,1,730,89.91Zm-11.3,45.01V99.71h10.94v35.21Z" fill="#0a0050"/>
          <path id="Path_192" data-name="Path 192" d="M749.95,89.62V99.7h7.85v8.06h-7.85v12.75c0,4.25,1.01,6.19,4.32,6.19a17.281,17.281,0,0,0,3.24-.29l.07,8.28a21.341,21.341,0,0,1-7.13.94,11.387,11.387,0,0,1-8.21-3.02c-2.02-2.09-3.02-5.47-3.02-10.44v-14.4h-4.68V99.71h4.68V92.08l10.73-2.45Z" fill="#0a0050"/>
          <path id="Path_193" data-name="Path 193" d="M774.71,89.91c0,3.02-2.3,5.47-5.9,5.47s-5.76-2.45-5.69-5.47c-.07-3.17,2.23-5.54,5.76-5.54A5.486,5.486,0,0,1,774.71,89.91Zm-11.3,45.01V99.71h10.94v35.21Z" fill="#0a0050"/>
          <path id="Path_194" data-name="Path 194" d="M817.19,116.92c0,12.89-9.14,18.79-18.58,18.79-10.3,0-18.22-6.77-18.22-18.15s7.49-18.65,18.79-18.65,18,7.42,18,18Zm-25.49.35c0,6.05,2.52,10.58,7.2,10.58,4.25,0,6.98-4.25,6.98-10.58,0-5.26-2.02-10.58-6.98-10.58C793.64,106.69,791.7,112.09,791.7,117.27Z" fill="#0a0050"/>
          <path id="Path_195" data-name="Path 195" d="M823.24,110.94c0-4.39-.14-8.14-.29-11.23h9.5l.5,4.82h.22a12.894,12.894,0,0,1,10.87-5.62c7.2,0,12.6,4.75,12.6,15.12v20.88H845.69V115.4c0-4.54-1.58-7.63-5.54-7.63a5.844,5.844,0,0,0-5.54,4.1,7.5,7.5,0,0,0-.43,2.74v20.31H823.24Z" fill="#0a0050"/>
          <path id="Path_196" data-name="Path 196" d="M29.24,166.79H40.18v51.12H29.24V166.79Z" fill="#0a0050"/>
          <path id="Path_197" data-name="Path 197" d="M68.33,217.92l-.65-3.53h-.22a12.666,12.666,0,0,1-10.08,4.32c-7.13,0-11.38-5.18-11.38-10.8,0-9.15,8.21-13.54,20.67-13.47v-.5c0-1.87-1.01-4.54-6.41-4.54a19.789,19.789,0,0,0-9.72,2.66L48.52,185a29.03,29.03,0,0,1,13.68-3.1c11.74,0,15.48,6.91,15.48,15.19v12.24a54.739,54.739,0,0,0,.5,8.57H68.32Zm-1.29-16.64c-5.76-.07-10.22,1.3-10.22,5.54,0,2.81,1.87,4.18,4.32,4.18a5.978,5.978,0,0,0,5.69-4.03,8.051,8.051,0,0,0,.22-1.87v-3.82Z" fill="#0a0050"/>
          <path id="Path_198" data-name="Path 198" d="M118.81,206.61c0,4.61.14,8.35.29,11.31h-9.5l-.5-4.97h-.22a12.564,12.564,0,0,1-11.02,5.76c-7.13,0-12.38-4.46-12.38-15.34V182.7H96.5v18.94c0,5.11,1.66,8.21,5.47,8.21a5.892,5.892,0,0,0,5.47-3.82,6.085,6.085,0,0,0,.36-2.38V182.7h11.02v23.91Z" fill="#0a0050"/>
          <path id="Path_199" data-name="Path 199" d="M126.87,193.94c0-4.39-.14-8.14-.29-11.23h9.5l.5,4.82h.22a12.894,12.894,0,0,1,10.87-5.62c7.2,0,12.6,4.75,12.6,15.12v20.88H149.33V198.4c0-4.54-1.58-7.63-5.54-7.63a5.844,5.844,0,0,0-5.54,4.1,7.5,7.5,0,0,0-.43,2.74v20.31H126.88V193.94Z" fill="#0a0050"/>
          <path id="Path_200" data-name="Path 200" d="M194.76,217.05a26.792,26.792,0,0,1-9.79,1.58c-11.38,0-18.65-6.91-18.65-18,0-10.3,7.06-18.72,20.16-18.72a25.2,25.2,0,0,1,8.35,1.37l-1.73,8.14a14.921,14.921,0,0,0-6.12-1.08c-5.76,0-9.5,4.1-9.43,9.87,0,6.48,4.32,9.86,9.65,9.86a16.8,16.8,0,0,0,6.26-1.08l1.3,8.06Z" fill="#0a0050"/>
          <path id="Path_201" data-name="Path 201" d="M200.09,166.79h10.94v20.09h.14a13.177,13.177,0,0,1,4.32-3.6,12.324,12.324,0,0,1,5.69-1.37c6.98,0,12.31,4.82,12.31,15.41v20.59H222.55V198.54c0-4.61-1.58-7.78-5.69-7.78a5.812,5.812,0,0,0-5.47,3.82,6.935,6.935,0,0,0-.36,2.45v20.88H200.09V166.79Z" fill="#0a0050"/>
          <path id="Path_202" data-name="Path 202" d="M249.99,203.8c.36,4.54,4.82,6.7,9.94,6.7a30.9,30.9,0,0,0,9.72-1.44l1.44,7.42a34.756,34.756,0,0,1-12.75,2.16c-11.95,0-18.79-6.91-18.79-17.93,0-8.93,5.54-18.79,17.79-18.79,11.38,0,15.7,8.86,15.7,17.57a26.45,26.45,0,0,1-.36,4.32H250Zm12.89-7.49c0-2.66-1.15-7.13-6.19-7.13-4.61,0-6.48,4.18-6.77,7.13Z" fill="#0a0050"/>
          <path id="Path_203" data-name="Path 203" d="M312.99,166.79V207.4c0,3.96.14,8.14.29,10.51h-9.72l-.5-5.18h-.14a12.294,12.294,0,0,1-11.02,5.98c-8.35,0-15.05-7.13-15.05-18.07-.07-11.88,7.34-18.72,15.77-18.72,4.32,0,7.7,1.51,9.29,3.96h.14V166.8h10.94Zm-10.95,30.82a17.889,17.889,0,0,0-.14-1.94,6.575,6.575,0,0,0-6.41-5.4c-4.97,0-7.56,4.46-7.56,10.01,0,5.98,2.95,9.72,7.49,9.72a6.412,6.412,0,0,0,6.34-5.26,9.132,9.132,0,0,0,.29-2.52v-4.61Z" fill="#0a0050"/>
          <path id="Path_204" data-name="Path 204" d="M334.59,217.92c.14-2.3.29-6.55.29-10.51V166.8h10.94v20.09h.14c2.09-3.02,5.76-4.97,10.66-4.97,8.42,0,14.62,6.98,14.55,17.79,0,12.67-8.06,19.01-16.13,19.01a11.677,11.677,0,0,1-10.58-5.69h-.14l-.43,4.9H334.6Zm11.23-14.98a7.669,7.669,0,0,0,.22,1.94,6.623,6.623,0,0,0,6.41,5.18c4.68,0,7.56-3.6,7.56-9.94,0-5.47-2.45-9.79-7.56-9.79a6.784,6.784,0,0,0-6.41,5.4,9.4,9.4,0,0,0-.22,2.02v5.18Z" fill="#0a0050"/>
          <path id="Path_205" data-name="Path 205" d="M384.77,182.71l5.26,17.28c.58,2.09,1.3,4.68,1.73,6.55h.22c.5-1.87,1.08-4.54,1.58-6.55l4.32-17.28h11.74l-8.21,23.19c-5.04,13.97-8.42,19.59-12.38,23.11a20.2,20.2,0,0,1-10.58,4.82l-2.3-9.29a13.764,13.764,0,0,0,4.75-1.87,12.515,12.515,0,0,0,4.54-4.39,2.849,2.849,0,0,0,.58-1.58,3.968,3.968,0,0,0-.5-1.8l-12.89-32.19H384.8Z" fill="#0a0050"/>
          <path id="Path_206" data-name="Path 206" d="M438.63,169.38v27.94c0,8.35,3.17,12.6,8.78,12.6s8.93-4.03,8.93-12.6V169.38h10.94V196.6c0,14.98-7.56,22.11-20.23,22.11s-19.44-6.77-19.44-22.25V169.39h11.02Z" fill="#0a0050"/>
          <path id="Path_207" data-name="Path 207" d="M476.06,217.92V169.39h12.82l10.08,17.79a140.669,140.669,0,0,1,7.92,16.63h.22a180.062,180.062,0,0,1-.94-20.23V169.39h10.08v48.53H504.72L494.35,199.2a178.194,178.194,0,0,1-8.42-17.14l-.22.07c.29,6.41.43,13.25.43,21.17v14.62Z" fill="#0a0050"/>
          <path id="Path_208" data-name="Path 208" d="M553.9,197.39H536.04v11.52h19.95v9H525.03V169.38h29.95v9H536.04v10.08H553.9v8.93Z" fill="#0a0050"/>
          <path id="Path_209" data-name="Path 209" d="M563.11,206.61a28.03,28.03,0,0,0,12.17,3.02c5.04,0,7.7-2.09,7.7-5.26s-2.3-4.75-8.14-6.84c-8.06-2.81-13.32-7.27-13.32-14.33,0-8.28,6.91-14.62,18.36-14.62a29.651,29.651,0,0,1,12.38,2.45l-2.45,8.86a23,23,0,0,0-10.15-2.3c-4.75,0-7.06,2.16-7.06,4.68,0,3.1,2.74,4.46,9,6.84,8.57,3.17,12.6,7.63,12.6,14.47,0,8.14-6.26,15.05-19.59,15.05-5.54,0-11.02-1.44-13.75-2.95l2.23-9.07Z" fill="#0a0050"/>
          <path id="Path_210" data-name="Path 210" d="M636.55,216.55c-2.02,1.01-6.55,2.09-12.46,2.09-16.78,0-25.42-10.44-25.42-24.27,0-16.56,11.81-25.78,26.5-25.78,5.69,0,10.01,1.15,11.95,2.16l-2.23,8.71a23.632,23.632,0,0,0-9.22-1.8c-8.71,0-15.48,5.26-15.48,16.06,0,9.72,5.76,15.84,15.55,15.84a27.511,27.511,0,0,0,9.14-1.58l1.66,8.57Z" fill="#0a0050"/>
          <path id="Path_211" data-name="Path 211" d="M685.3,193.15c0,15.91-9.65,25.56-23.83,25.56s-22.83-10.87-22.83-24.7c0-14.54,9.29-25.42,23.62-25.42s23.04,11.16,23.04,24.55Zm-35.07.64c0,9.5,4.46,16.2,11.81,16.2s11.67-7.06,11.67-16.49c0-8.71-4.18-16.2-11.74-16.2S650.23,184.36,650.23,193.79Z" fill="#0a0050"/>
        </g>
      </g>
    </g>
  </g>
</svg>
