<?xml version="1.0" encoding="UTF-8"?><svg id="Layer_1" xmlns="http://www.w3.org/2000/svg" xmlns:xlink="http://www.w3.org/1999/xlink" viewBox="0 0 2299.03 706"><defs><clipPath id="clippath"><rect x="152.01" y="152.88" width="400.16" height="400.24" style="fill:none;"/></clipPath></defs><path d="m1836.93,418.42c12.99,0,20.2,6.31,20.2,17.75,0,10.77-7.05,17.23-18.86,17.23h-8.32v16.56h-10.99v-51.53h17.97Zm-6.98,25.99h6.53c6.39,0,9.58-2.82,9.58-8.32s-3.49-8.61-9.95-8.61h-6.16v16.93Zm-31.19,4.83c0,7.57-2.9,11.29-8.84,11.29s-9.06-3.79-9.06-11.29v-30.89h-10.99v30.15c0,7.35,1.78,12.99,5.42,16.63,3.42,3.42,8.32,5.12,14.63,5.12,9.06,0,19.83-3.79,19.83-21.76v-30.15h-10.99v30.89Zm-58.81-31.26c11.14,0,23.02,6.91,23.02,26.21s-11.88,26.06-23.02,26.06-23.09-6.83-23.09-26.06,11.88-26.21,23.09-26.21Zm0,42.77c4.31,0,11.66-2.15,11.66-16.48s-7.35-16.48-11.66-16.48c-7.57,0-11.73,5.87-11.73,16.48s4.16,16.48,11.73,16.48Zm-34.38-6.46c1.86,3.71,3.42,6.83,7.05,6.83h2.6v8.47h-.37s-2,.59-5.35.59c-8.61,0-11.29-5.94-13.66-11.21-1.93-4.31-3.56-8.02-8.09-8.02h-4.83v18.86h-10.99v-51.53h18.27c13.29,0,19.53,5.2,19.53,16.41,0,6.91-4.16,11.14-8.32,12.99,1.86,1.71,3.04,4.16,4.16,6.53m-22.65-11.81h6.09c6.09,0,9.88-2.82,9.88-7.43s-3.27-7.57-9.06-7.57h-6.91v15Zm-40.17,8.61h11.29v.59c0,3.34-1.19,8.91-9.06,8.91-7.43,0-11.88-6.09-11.88-16.34s4.23-16.48,11.66-16.48c8.84,0,9.13,8.91,9.13,9.28v.59l10.25-1.56v-.45c0-3.71-3.27-17.6-19.53-17.6-14.55,0-22.87,9.58-22.87,26.21s8.61,26.06,23.02,26.06,19.6-10.1,19.6-18.71v-8.91h-21.68v8.47l.07-.07Zm-32.82-32.67h-12.99l-17.08,23.17v-23.17h-11.14v51.53h11.14v-23.69l17.45,23.69h13.22l-19.9-25.99,19.31-25.54Zm-62,31.86l-17.97-31.86h-11.14v51.53h10.99v-30.74l17.97,30.74h11.21v-51.53h-10.99v31.86h-.07Zm-50.79-31.48l18.79,51.16h-11.36l-4.38-12.62h-17.15l-4.23,12.62h-11.51l18.93-51.53h10.84l.15.37h-.07Zm-5.64,13.74l-5.57,16.19h11.29l-5.72-16.19Zm-34.53,10.25c3.94,1.11,9.13,4.83,9.13,12.55,0,9.28-6.53,14.63-18.12,14.63h-21.68v-51.53h19.6c11.14,0,16.78,4.68,16.78,13.81,0,7.13-3.19,9.65-5.72,10.47m-12.18-3.27c4.6,0,6.68-1.93,6.68-6.01s-2.75-5.94-8.09-5.94h-6.16v11.96h7.57Zm-7.5,21.31h8.61c5.57,0,8.17-2.08,8.17-6.61,0-5.57-4.6-6.68-8.47-6.68h-8.32v13.29Zm-56.14-42.4c16.04,0,25.62,9.95,25.62,26.58s-8.54,24.88-23.46,24.88h-17.45v-51.53h15.3v.07Zm-4.38,42.4h6.39c7.87,0,12.62-5.94,12.62-15.89,0-11.51-5.05-17.38-14.85-17.38h-4.16v33.27Zm-38.32-42.4h-10.92v51.53h33.27v-9.13h-22.28v-42.4h-.07Zm-25.77,35.87c1.86,3.71,3.42,6.83,6.98,6.83h2.6v8.47h-.37s-2,.59-5.35.59c-8.61,0-11.29-5.94-13.66-11.21-1.93-4.31-3.56-8.02-8.09-8.02h-4.83v18.86h-10.99v-51.53h18.27c13.37,0,19.6,5.2,19.6,16.41,0,6.91-4.16,11.14-8.32,12.99,1.86,1.71,3.04,4.16,4.16,6.53m-22.65-11.81h6.09c6.09,0,9.88-2.82,9.88-7.43s-3.34-7.57-9.06-7.57h-6.91v15Zm-40.25-24.5c11.14,0,23.02,6.91,23.02,26.21s-11.88,26.06-23.02,26.06-23.02-6.83-23.02-26.06,11.88-26.21,23.02-26.21Zm0,42.77c4.38,0,11.66-2.15,11.66-16.48s-7.28-16.48-11.66-16.48c-7.57,0-11.73,5.87-11.73,16.48s4.16,16.48,11.73,16.48Zm-36.98-42.33h12.4l-14.78,51.53h-12.4l-8.98-32.3-9.13,32.3h-12.4l-14.78-51.53h12.77l8.61,37.57,10.4-37.57h9.21l10.02,37.57,8.98-37.57h.07Z" style="fill:#0a0050;"/><path d="m658.43,402.97h-13.14v66.83h13.14v-66.83Z" style="fill:#0a0050;"/><path d="m670.16,469.8v-66.83h25.32c13.66,0,21.61,5.2,21.61,17.67s-7.05,13.89-10.4,13.89v.15c4.46,0,14.93,3.94,14.93,16.41,0,13.96-10.99,18.71-23.32,18.71h-28.14Zm23.76-38.91c7.13,0,9.58-3.56,9.58-8.69s-3.56-8.54-11.36-8.54h-8.76v17.23h10.62-.07Zm1.41,28.29c6.61,0,11.58-2.08,11.58-9.43,0-6.91-5.05-9.58-11.81-9.58h-11.73v19.01h12.03-.07Z" style="fill:#0a0050;"/><path d="m785.33,469.65s-2.45.67-6.91.67c-20.27,0-14.7-25.47-28.81-25.47h-7.05v25.02h-13.22v-66.83h23.46c16.41,0,25.25,6.01,25.25,21.01,0,9.8-6.39,15.07-11.58,17,6.91,5.64,7.28,18.64,16.04,18.64h2.75v10.02l.07-.07Zm-34.01-34.75c7.95,0,13.74-3.64,13.74-10.54s-4.68-10.69-12.7-10.69h-9.88v21.24h8.84Z" style="fill:#0a0050;"/><path d="m791.12,469.8v-66.83h19.6c17.52,0,33.27,9.5,33.27,34.6,0,23.76-14.11,32.23-30.37,32.23h-22.5Zm22.35-10.69c10.25,0,17.38-7.43,17.38-21.76s-6.31-23.69-20.35-23.69h-6.16v45.44h9.13Z" style="fill:#0a0050;"/><path d="m883.05,454.58c-6.91,0-12.33-5.57-12.33-12.4s5.42-12.4,12.33-12.4,12.4,5.49,12.4,12.4-5.57,12.4-12.4,12.4Z" style="fill:#0a0050;"/><path d="m938.59,402.97h-13.22v66.83h13.22v-66.83Z" style="fill:#0a0050;"/><path d="m950.25,469.8v-66.83h19.6c17.6,0,33.19,9.5,33.19,34.6,0,23.76-14.11,32.23-30.37,32.23h-22.43Zm22.35-10.69c10.25,0,17.38-7.43,17.38-21.76s-6.31-23.69-20.35-23.69h-6.24v45.44h9.21Z" style="fill:#0a0050;"/><path d="m1046.63,453.17h-23.69l-5.64,16.71h-13.74l24.58-66.83h13.44l24.58,66.83h-13.66l-5.79-16.71h-.07Zm-20.2-10.02h16.78l-8.54-24.28-8.32,24.28h.07Z" style="fill:#0a0050;"/><path d="m610.31,240.73h99.35v20.42h-36.46v102.25h-26.36v-102.25h-36.53v-20.42Z" style="fill:#0a0050;"/><path d="m723.62,363.4v-122.67h26.36v48.41h46.34v-48.41h26.66v122.67h-26.29v-53.84h-46.71v53.84h-26.36Z" style="fill:#0a0050;"/><path d="m844.44,240.73h82.2v20.42h-55.84v28.66h52.28v20.42h-52.28v32.75h57.7v20.42h-84.06v-122.67Z" style="fill:#0a0050;"/><path d="m1057.47,240.73h29.7l21.39,92.22h.3l19.75-92.22h25.1l-31.26,122.67h-29.18l-22.05-93.41h-.37l-23.76,93.41h-29.85l-29.92-122.67h27.18l18.86,92.22h.3l23.84-92.22Z" style="fill:#0a0050;"/><path d="m1162.69,302.06c0-36.16,18.34-63.86,58.88-63.86s58.88,27.7,58.88,63.86-18.34,63.86-58.88,63.86-58.88-27.62-58.88-63.86Zm27.99,0c0,21.01,4.9,44.85,30.89,44.85s30.89-23.76,30.89-44.85-4.9-44.85-30.89-44.85-30.89,23.76-30.89,44.85Z" style="fill:#0a0050;"/><path d="m1324.2,363.4h-26.36v-122.6h52.13c21.09.15,42.62,6.98,42.62,31.93,0,15.96-10.32,26.51-25.47,29.7v.37c20.2,2.23,20.2,14.55,22.43,31.56,1.19,7.8,2.23,22.28,7.13,29.03h-29.03c-2.23-10.84-3.42-21.91-4.6-32.97-.67-6.76-2.38-16.11-10.99-16.48h-27.85v49.45Zm0-69.8h22.05c11.51-.22,18.34-5.94,18.34-16.86s-6.76-15.45-18.34-15.59h-22.05v32.45Z" style="fill:#0a0050;"/><path d="m1412.78,363.4v-122.67h26.29v102.25h53.17v20.42h-79.45Z" style="fill:#0a0050;"/><path d="m1506.49,240.73h41.81c38.17-.3,62,18.64,62,61.33s-23.76,61.63-62,61.26h-41.81v-122.6Zm26.29,102.25h13.59c31.26.37,35.87-21.38,35.87-40.91s-4.6-41.29-35.87-40.91h-13.59v81.83Z" style="fill:#0a0050;"/><path d="m1676.91,363.4v-122.6h46.04c21.91-1.34,44.33,7.8,44.33,31.78,0,13.44-9.36,22.72-21.61,26.81v.37c15.52,3.27,27.03,13.96,27.03,31.93,0,24.28-30.59,33.12-49.38,31.78h-46.34l-.07-.07Zm46.86-20.35c12.4,0,20.87-2.23,20.87-16.34s-8.47-16.34-20.87-16.34h-20.57v32.6h20.57v.07Zm0-53.02c11.06,0,17.15-4.6,17.15-14.41s-6.09-14.41-17.15-14.41h-20.57v28.89h20.57v-.07Z" style="fill:#0a0050;"/><path d="m1780.94,363.4l44.33-122.6h31.26l42.62,122.6h-26.43l-8.84-25.99h-48.56l-9.21,25.99h-25.17Zm76.26-46.34l-16.78-52.28h-.37l-17.97,52.28h35.12Z" style="fill:#0a0050;"/><path d="m1985.96,363.4l-48.41-101.95-.3.37v101.58h-24.65v-122.67h39.06l46.71,96.53.37-.37v-96.16h24.58v122.67h-37.35Z" style="fill:#0a0050;"/><path d="m2071.28,293.74h.3l40.77-53.02h30.74l-45,54.87,48.93,67.8h-32.82l-42.62-62.52h-.3v62.52h-26.36v-122.67h26.36v53.02Z" style="fill:#0a0050;"/><path d="m1107.82,477.53c-2,0-3.71-1.63-3.71-3.71v-74.48c0-2,1.63-3.64,3.71-3.64s3.71,1.63,3.71,3.64v74.48c0,2.08-1.63,3.71-3.71,3.71Z" style="fill:#0a0050;"/><g style="clip-path:url(#clippath);"><path d="m397.2,480.12c26.29-.3,51.24-4.16,73.29-11.58,5.57-1.86,10.84-3.94,15.89-6.16-6.16,15-15.22,27.47-26.95,36.83-23.17,17.08-50.57,28.81-80.27,33.27,7.43-12.85,13.44-30.96,18.04-52.28m-123.63,36.46c-.59-.45-1.19-.89-1.86-1.19-10.32-5.05-14.48-28.07-9.13-63.34,19.9,8.91,41.51,16.04,64.23,20.87,17.23,3.71,34.38,5.94,51.16,6.83-8.24,35.79-18.79,54.58-25.77,54.58-.45,0-.89,0-1.34.15-27.7-.15-53.91-6.53-77.37-17.82m-95.94-114.06c-1.56-6.09-2.6-12.18-2.97-18.49,6.24,8.84,13.81,17.52,22.8,25.84,13.59,12.55,29.78,23.84,47.82,33.49-3.64,20.57-4.75,39.21-2.38,54.28-31.04-23.46-54.28-56.73-65.2-95.12m231.38-49.97c0-7.28-.07-14.55-.3-21.83,23.17-1.56,44.63-7.57,62.15-17.67,16.26,32.15,24.95,66.09,24.88,98.09,0,9.28-.82,18.12-2.3,26.43-8.39,5.12-17.97,9.58-28.81,13.22-19.23,6.46-40.91,10.02-63.86,10.62,5.49-33.12,8.17-71.51,8.17-108.86m-78.19,102.1c-23.02-4.9-44.85-12.25-64.53-21.53,6.46-29.18,18.56-64.45,37.65-103.66,2.75-5.64,5.57-11.29,8.54-16.71,13.37,6.01,27.92,10.77,43.14,14.03,11.58,2.45,23.17,3.86,34.53,4.23.22,6.98.3,14.18.3,21.61,0,43.81-3.49,80.2-8.54,108.64-16.63-.74-33.79-2.9-51.01-6.61m-120.74-58.36c-15.82-14.63-26.66-30.07-32.23-45.44,4.38-17.23,12.85-34.53,25.4-51.01,11.88-15.74,26.58-29.85,43.51-41.95,4.9,8.84,11.73,17.45,20.42,25.62,8.24,7.72,17.9,14.78,28.59,20.94-2.97,5.57-5.87,11.29-8.61,17-16.48,33.86-30,70.17-37.94,103.07-14.7-8.32-27.92-17.75-39.21-28.14m186.31-173.16c21.16,15.74,40.54,36.09,56.81,59.85,3.04,4.53,5.94,9.13,8.76,13.74-14.85,8.61-33.64,13.74-53.91,15.22-1.71-32.15-5.57-63.04-11.58-88.73m-36.9,85.24c-13.44-2.9-26.29-6.98-38.09-12.18,17.38-30.37,36.39-56.81,55.1-76.41,5.87,23.02,10.77,53.98,12.85,92.45-9.88-.45-19.9-1.63-29.85-3.79m-79.53-38.76c-7.72-7.2-13.51-14.7-17.52-22.28,17.45-10.47,36.76-19.08,57.33-25.25,12.25-3.71,24.58-6.39,36.98-8.32-17.82,19.97-35.64,45.37-51.9,73.96-9.28-5.42-17.67-11.51-24.88-18.19m-40.02-59.33c-.22.97-.52,1.93-.74,2.9-1.86,8.76-1.63,17.75.52,26.66-20.05,13.81-37.42,30.15-51.31,48.49-4.23,5.57-8.02,11.29-11.44,17,10.32-38.09,32.75-71.28,62.89-95.12m17.45,6.76c2.08-9.65,7.87-18.27,16.86-25.4,21.68-6.46,47-4.9,73.59,4.83-11.21,1.93-22.35,4.53-33.41,7.87-20.57,6.16-39.88,14.55-57.62,24.8-.37-4.08-.22-8.09.59-12.03m151.04-24.5c6.39-4.16,12.25-6.98,17.15-8.17,9.36,3.79,18.56,8.54,27.4,14.55-14.11-3.49-29.03-5.64-44.55-6.39Zm-31.34-19.9c7.57.82,15.59,2.15,23.91,4.08-5.2,2.75-10.54,6.24-16.04,10.47-2.45-5.49-5.05-10.4-7.87-14.55Zm-20.2,7.28c-8.39-3.19-16.78-5.72-24.95-7.5,6.61-.74,13.22-1.11,19.97-1.11,3.19,0,7.05,3.86,11.14,11.21-2.08-.89-4.16-1.78-6.16-2.52m-204.8,172.72c0,19.01,2.75,37.42,7.72,54.87.3,1.19.59,2.38.97,3.49.07.22.15.45.22.67,25.25,81.61,101.43,141.08,191.21,141.08,41.51,0,80.2-12.7,112.2-34.45.3-.15.67-.37.97-.52,1.93-1.34,3.71-2.67,5.49-4.08,36.83-27.25,64.01-66.76,75.44-112.42.67-2.08,1.19-4.23,1.63-6.39.07-.52.15-1.04.15-1.56,2.75-13.14,4.16-26.73,4.16-40.69,0-27.03-5.27-53.24-15.74-77.89-2-4.75-7.43-6.91-12.18-4.9-4.75,2-6.98,7.43-4.98,12.18,9.43,22.35,14.26,46.11,14.26,70.62,0,15-1.86,29.63-5.35,43.59-2.75,8.84-7.57,17-14.26,24.36.15-3.19.3-6.31.3-9.65.07-35.72-9.8-73.44-28.14-108.86,13.44-11.51,21.98-25.77,24.95-41.73.97-5.05-2.38-9.88-7.43-10.84-5.05-.97-9.88,2.38-10.84,7.43-1.93,10.54-7.43,20.2-15.96,28.44-2.67-4.38-5.42-8.76-8.39-13.07-16.34-23.98-35.79-44.7-56.95-61.19,27.99,1.86,53.91,8.61,74.77,20.27,3.27,1.86,7.65,1.78,10.69-.74,3.94-3.27,4.46-9.13,1.19-13.14-29.92-41.88-81.76-64.97-145.99-64.97-110.34,0-200.12,89.77-200.12,200.12Z" style="fill:#0a0050;"/></g></svg>